<?xml version="1.0" encoding="UTF-8" standalone="no"?>
<!DOCTYPE svg PUBLIC "-//W3C//DTD SVG 1.1//EN"
 "http://www.w3.org/Graphics/SVG/1.1/DTD/svg11.dtd">
<!-- Generated by graphviz version 2.32.0 (20130808.2104)
 -->
<!-- Title: bbc_l1 Pages: 1 -->
<svg width="315pt" height="205pt"
 viewBox="0.00 0.00 315.00 205.00" xmlns="http://www.w3.org/2000/svg" xmlns:xlink="http://www.w3.org/1999/xlink">
<g id="graph0" class="graph" transform="scale(1 1) rotate(0) translate(4 201)">
<title>bbc_l1</title>
<polygon fill="white" stroke="white" points="-4,5 -4,-201 312,-201 312,5 -4,5"/>
<g id="clust1" class="cluster"><title>cluster_bbc</title>
<polygon fill="none" stroke="black" points="8,-8 8,-189 92,-189 92,-8 8,-8"/>
<text text-anchor="middle" x="50" y="-176" font-family="Verdana" font-size="9.00">BBC Master</text>
</g>
<g id="clust2" class="cluster"><title>cluster_transfer</title>
<polygon fill="none" stroke="black" stroke-dasharray="5,2" points="112,-116 112,-189 203,-189 203,-116 112,-116"/>
<text text-anchor="middle" x="157.5" y="-176" font-family="Verdana" font-size="9.00">Physical Transfer</text>
</g>
<g id="clust3" class="cluster"><title>cluster_pc</title>
<polygon fill="none" stroke="black" points="223,-8 223,-189 299,-189 299,-8 223,-8"/>
<text text-anchor="middle" x="261" y="-176" font-family="Verdana" font-size="9.00">Modern PC</text>
</g>
<!-- fd -->
<g id="node1" class="node"><title>fd</title>
<polygon fill="none" stroke="black" points="84.2073,-160 15.7927,-160 15.7927,-124 84.2073,-124 84.2073,-160"/>
<text text-anchor="middle" x="50" y="-139.563" font-family="Verdana" font-size="9.00">Floppy Disk</text>
</g>
<!-- bbc -->
<g id="node2" class="node"><title>bbc</title>
<polygon fill="none" stroke="black" points="77,-106 23,-106 23,-70 77,-70 77,-106"/>
<text text-anchor="middle" x="50" y="-85.5628" font-family="Verdana" font-size="9.00">BBC</text>
</g>
<!-- fd&#45;&gt;bbc -->
<g id="edge1" class="edge"><title>fd&#45;&gt;bbc</title>
<path fill="none" stroke="black" d="M50,-123.79C50,-121.308 50,-118.826 50,-116.344"/>
<polygon fill="black" stroke="black" points="53.5001,-116.141 50,-106.141 46.5001,-116.141 53.5001,-116.141"/>
</g>
<!-- ide_usb -->
<g id="node4" class="node"><title>ide_usb</title>
<polygon fill="none" stroke="black" points="184,-160 130,-160 130,-124 184,-124 184,-160"/>
<text text-anchor="middle" x="157" y="-139.563" font-family="Verdana" font-size="9.00">CF</text>
</g>
<!-- fd&#45;&gt;ide_usb -->
<!-- cf_ide -->
<g id="node3" class="node"><title>cf_ide</title>
<polygon fill="none" stroke="black" points="77.7084,-52 22.2916,-52 22.2916,-16 77.7084,-16 77.7084,-52"/>
<text text-anchor="middle" x="50" y="-31.5628" font-family="Verdana" font-size="9.00">CF (IDE)</text>
</g>
<!-- bbc&#45;&gt;cf_ide -->
<g id="edge2" class="edge"><title>bbc&#45;&gt;cf_ide</title>
<path fill="none" stroke="black" d="M50,-69.7902C50,-67.3082 50,-64.8262 50,-62.3443"/>
<polygon fill="black" stroke="black" points="53.5001,-62.1406 50,-52.1406 46.5001,-62.1407 53.5001,-62.1406"/>
</g>
<!-- cf_ide&#45;&gt;ide_usb -->
<g id="edge5" class="edge"><title>cf_ide&#45;&gt;ide_usb</title>
<path fill="none" stroke="black" d="M77.948,-49.9589C82.834,-53.3413 87.7289,-57.0826 92,-61 109.771,-77.2994 126.541,-98.8402 138.453,-115.611"/>
<polygon fill="black" stroke="black" points="135.632,-117.685 144.219,-123.892 141.377,-113.686 135.632,-117.685"/>
</g>
<!-- cf_usb -->
<g id="node5" class="node"><title>cf_usb</title>
<polygon fill="none" stroke="black" points="289.705,-160 232.295,-160 232.295,-124 289.705,-124 289.705,-160"/>
<text text-anchor="middle" x="261" y="-139.563" font-family="Verdana" font-size="9.00">CF (USB)</text>
</g>
<!-- ide_usb&#45;&gt;cf_usb -->
<g id="edge4" class="edge"><title>ide_usb&#45;&gt;cf_usb</title>
<path fill="none" stroke="black" d="M184.003,-142C195.531,-142 209.323,-142 221.974,-142"/>
<polygon fill="black" stroke="black" points="222.258,-145.5 232.258,-142 222.257,-138.5 222.258,-145.5"/>
</g>
<!-- pc -->
<g id="node6" class="node"><title>pc</title>
<polygon fill="none" stroke="black" points="288,-106 234,-106 234,-70 288,-70 288,-106"/>
<text text-anchor="middle" x="261" y="-85.5628" font-family="Verdana" font-size="9.00">PC</text>
</g>
<!-- cf_usb&#45;&gt;pc -->
<g id="edge6" class="edge"><title>cf_usb&#45;&gt;pc</title>
<path fill="none" stroke="black" d="M261,-123.79C261,-121.308 261,-118.826 261,-116.344"/>
<polygon fill="black" stroke="black" points="264.5,-116.141 261,-106.141 257.5,-116.141 264.5,-116.141"/>
</g>
<!-- hd -->
<g id="node7" class="node"><title>hd</title>
<polygon fill="none" stroke="black" points="291.201,-52 230.799,-52 230.799,-16 291.201,-16 291.201,-52"/>
<text text-anchor="middle" x="261" y="-31.5628" font-family="Verdana" font-size="9.00">Hard Disk</text>
</g>
<!-- pc&#45;&gt;hd -->
<g id="edge7" class="edge"><title>pc&#45;&gt;hd</title>
<path fill="none" stroke="black" d="M261,-69.7902C261,-67.3082 261,-64.8262 261,-62.3443"/>
<polygon fill="black" stroke="black" points="264.5,-62.1406 261,-52.1406 257.5,-62.1407 264.5,-62.1406"/>
</g>
</g>
</svg>
