<?xml version="1.0" encoding="UTF-8" standalone="no"?>
<!DOCTYPE svg PUBLIC "-//W3C//DTD SVG 1.1//EN"
 "http://www.w3.org/Graphics/SVG/1.1/DTD/svg11.dtd">
<!-- Generated by graphviz version 2.32.0 (20130808.2104)
 -->
<!-- Title: bbc_l1 Pages: 1 -->
<svg width="362pt" height="151pt"
 viewBox="0.00 0.00 362.00 151.00" xmlns="http://www.w3.org/2000/svg" xmlns:xlink="http://www.w3.org/1999/xlink">
<g id="graph0" class="graph" transform="scale(1 1) rotate(0) translate(4 147)">
<title>bbc_l1</title>
<polygon fill="white" stroke="white" points="-4,5 -4,-147 359,-147 359,5 -4,5"/>
<g id="clust1" class="cluster"><title>cluster_bbc</title>
<polygon fill="none" stroke="black" points="8,-8 8,-135 92,-135 92,-8 8,-8"/>
<text text-anchor="middle" x="50" y="-122" font-family="Verdana" font-size="9.00">BBC Master</text>
</g>
<g id="clust2" class="cluster"><title>cluster_pc</title>
<polygon fill="none" stroke="black" points="262,-8 262,-135 346,-135 346,-8 262,-8"/>
<text text-anchor="middle" x="304" y="-122" font-family="Verdana" font-size="9.00">Modern PC</text>
</g>
<!-- fd -->
<g id="node1" class="node"><title>fd</title>
<path fill="none" stroke="black" d="M72.2073,-106C72.2073,-106 27.7927,-106 27.7927,-106 21.7927,-106 15.7927,-100 15.7927,-94 15.7927,-94 15.7927,-82 15.7927,-82 15.7927,-76 21.7927,-70 27.7927,-70 27.7927,-70 72.2073,-70 72.2073,-70 78.2073,-70 84.2073,-76 84.2073,-82 84.2073,-82 84.2073,-94 84.2073,-94 84.2073,-100 78.2073,-106 72.2073,-106"/>
<text text-anchor="middle" x="50" y="-85.5628" font-family="Verdana" font-size="9.00">Floppy Disk</text>
</g>
<!-- cf_ide -->
<g id="node2" class="node"><title>cf_ide</title>
<path fill="none" stroke="black" d="M65.7084,-52C65.7084,-52 34.2916,-52 34.2916,-52 28.2916,-52 22.2916,-46 22.2916,-40 22.2916,-40 22.2916,-28 22.2916,-28 22.2916,-22 28.2916,-16 34.2916,-16 34.2916,-16 65.7084,-16 65.7084,-16 71.7084,-16 77.7084,-22 77.7084,-28 77.7084,-28 77.7084,-40 77.7084,-40 77.7084,-46 71.7084,-52 65.7084,-52"/>
<text text-anchor="middle" x="50" y="-31.5628" font-family="Verdana" font-size="9.00">CF (IDE)</text>
</g>
<!-- fd&#45;&gt;cf_ide -->
<g id="edge1" class="edge"><title>fd&#45;&gt;cf_ide</title>
<path fill="none" stroke="black" d="M50,-69.7902C50,-67.3082 50,-64.8262 50,-62.3443"/>
<polygon fill="black" stroke="black" points="53.5001,-62.1406 50,-52.1406 46.5001,-62.1407 53.5001,-62.1406"/>
</g>
<!-- ide_usb -->
<g id="node3" class="node"><title>ide_usb</title>
<ellipse fill="none" stroke="black" cx="177" cy="-88" rx="56.8154" ry="18"/>
<text text-anchor="middle" x="177" y="-85.5628" font-family="Verdana" font-size="9.00">Physical Transfer</text>
</g>
<!-- fd&#45;&gt;ide_usb -->
<!-- cf_ide&#45;&gt;ide_usb -->
<g id="edge4" class="edge"><title>cf_ide&#45;&gt;ide_usb</title>
<path fill="none" stroke="black" d="M77.8156,-45.5844C93.9429,-52.5513 114.837,-61.5777 133.203,-69.5118"/>
<polygon fill="black" stroke="black" points="131.97,-72.7917 142.538,-73.5445 134.746,-66.3657 131.97,-72.7917"/>
</g>
<!-- cf_usb -->
<g id="node4" class="node"><title>cf_usb</title>
<path fill="none" stroke="black" d="M320.705,-106C320.705,-106 287.295,-106 287.295,-106 281.295,-106 275.295,-100 275.295,-94 275.295,-94 275.295,-82 275.295,-82 275.295,-76 281.295,-70 287.295,-70 287.295,-70 320.705,-70 320.705,-70 326.705,-70 332.705,-76 332.705,-82 332.705,-82 332.705,-94 332.705,-94 332.705,-100 326.705,-106 320.705,-106"/>
<text text-anchor="middle" x="304" y="-85.5628" font-family="Verdana" font-size="9.00">CF (USB)</text>
</g>
<!-- ide_usb&#45;&gt;cf_usb -->
<g id="edge3" class="edge"><title>ide_usb&#45;&gt;cf_usb</title>
<path fill="none" stroke="black" d="M233.919,-88C244.421,-88 255.174,-88 264.974,-88"/>
<polygon fill="black" stroke="black" points="265.176,-91.5001 275.176,-88 265.176,-84.5001 265.176,-91.5001"/>
</g>
<!-- fdi -->
<g id="node5" class="node"><title>fdi</title>
<path fill="none" stroke="black" d="M326.001,-52C326.001,-52 281.999,-52 281.999,-52 275.999,-52 269.999,-46 269.999,-40 269.999,-40 269.999,-28 269.999,-28 269.999,-22 275.999,-16 281.999,-16 281.999,-16 326.001,-16 326.001,-16 332.001,-16 338.001,-22 338.001,-28 338.001,-28 338.001,-40 338.001,-40 338.001,-46 332.001,-52 326.001,-52"/>
<text text-anchor="middle" x="304" y="-38.1256" font-family="Verdana" font-size="9.00">Floppy</text>
<text text-anchor="middle" x="304" y="-25" font-family="Verdana" font-size="9.00">Disk Image</text>
</g>
<!-- cf_usb&#45;&gt;fdi -->
<g id="edge5" class="edge"><title>cf_usb&#45;&gt;fdi</title>
<path fill="none" stroke="black" d="M304,-69.7902C304,-67.3082 304,-64.8262 304,-62.3443"/>
<polygon fill="black" stroke="black" points="307.5,-62.1406 304,-52.1406 300.5,-62.1407 307.5,-62.1406"/>
</g>
</g>
</svg>
