<?xml version="1.0" encoding="UTF-8" standalone="no"?>
<!DOCTYPE svg PUBLIC "-//W3C//DTD SVG 1.1//EN"
 "http://www.w3.org/Graphics/SVG/1.1/DTD/svg11.dtd">
<!-- Generated by graphviz version 2.32.0 (20130808.2104)
 -->
<!-- Title: bbc_l1 Pages: 1 -->
<svg width="476pt" height="601pt"
 viewBox="0.00 0.00 476.00 601.00" xmlns="http://www.w3.org/2000/svg" xmlns:xlink="http://www.w3.org/1999/xlink">
<g id="graph0" class="graph" transform="scale(1 1) rotate(0) translate(4 597)">
<title>bbc_l1</title>
<polygon fill="white" stroke="white" points="-4,5 -4,-597 473,-597 473,5 -4,5"/>
<g id="clust1" class="cluster"><title>cluster_bbc</title>
<polygon fill="none" stroke="black" points="8,-296 8,-585 158,-585 158,-296 8,-296"/>
<text text-anchor="middle" x="83" y="-572" font-family="Verdana" font-size="9.00">BBC Master</text>
</g>
<g id="clust2" class="cluster"><title>cluster_pc</title>
<polygon fill="none" stroke="black" points="286,-8 286,-585 460,-585 460,-8 286,-8"/>
<text text-anchor="middle" x="373" y="-572" font-family="Verdana" font-size="9.00">Modern PC</text>
</g>
<!-- fd -->
<g id="node1" class="node"><title>fd</title>
<path fill="none" stroke="black" d="M105.155,-556C105.155,-556 60.8446,-556 60.8446,-556 54.8446,-556 48.8446,-550 48.8446,-544 48.8446,-544 48.8446,-532 48.8446,-532 48.8446,-526 54.8446,-520 60.8446,-520 60.8446,-520 105.155,-520 105.155,-520 111.155,-520 117.155,-526 117.155,-532 117.155,-532 117.155,-544 117.155,-544 117.155,-550 111.155,-556 105.155,-556"/>
<text text-anchor="middle" x="83" y="-535.563" font-family="Verdana" font-size="9.00">Floppy Disk</text>
</g>
<!-- backup -->
<g id="node2" class="node"><title>backup</title>
<path fill="none" stroke="black" d="M137.438,-484C137.438,-484 28.5625,-484 28.5625,-484 22.5625,-484 16.5625,-478 16.5625,-472 16.5625,-472 16.5625,-460 16.5625,-460 16.5625,-454 22.5625,-448 28.5625,-448 28.5625,-448 137.438,-448 137.438,-448 143.438,-448 149.438,-454 149.438,-460 149.438,-460 149.438,-472 149.438,-472 149.438,-478 143.438,-484 137.438,-484"/>
<text text-anchor="middle" x="83" y="-470.126" font-family="Verdana" font-size="9.00">Create Floppy Disk Image</text>
<text text-anchor="middle" x="83" y="-457" font-family="Verdana" font-size="9.00">LOAD &quot;BACKUP&quot;; RUN</text>
</g>
<!-- fd&#45;&gt;backup -->
<g id="edge1" class="edge"><title>fd&#45;&gt;backup</title>
<path fill="none" stroke="black" d="M83,-519.697C83,-511.983 83,-502.712 83,-494.112"/>
<polygon fill="black" stroke="black" points="86.5001,-494.104 83,-484.104 79.5001,-494.104 86.5001,-494.104"/>
</g>
<!-- disk_images -->
<g id="node3" class="node"><title>disk_images</title>
<path fill="none" stroke="black" d="M121.216,-412C121.216,-412 44.7845,-412 44.7845,-412 38.7845,-412 32.7845,-406 32.7845,-400 32.7845,-400 32.7845,-388 32.7845,-388 32.7845,-382 38.7845,-376 44.7845,-376 44.7845,-376 121.216,-376 121.216,-376 127.216,-376 133.216,-382 133.216,-388 133.216,-388 133.216,-400 133.216,-400 133.216,-406 127.216,-412 121.216,-412"/>
<text text-anchor="middle" x="83" y="-398.126" font-family="Verdana" font-size="9.00">Floppy Disk Image</text>
<text text-anchor="middle" x="83" y="-385" font-family="Verdana" font-size="9.00">(on ADFS)</text>
</g>
<!-- backup&#45;&gt;disk_images -->
<g id="edge2" class="edge"><title>backup&#45;&gt;disk_images</title>
<path fill="none" stroke="black" d="M83,-447.697C83,-439.983 83,-430.712 83,-422.112"/>
<polygon fill="black" stroke="black" points="86.5001,-422.104 83,-412.104 79.5001,-422.104 86.5001,-422.104"/>
</g>
<!-- cf_ide -->
<g id="node4" class="node"><title>cf_ide</title>
<path fill="none" stroke="black" d="M110.385,-340C110.385,-340 55.6153,-340 55.6153,-340 49.6153,-340 43.6153,-334 43.6153,-328 43.6153,-328 43.6153,-316 43.6153,-316 43.6153,-310 49.6153,-304 55.6153,-304 55.6153,-304 110.385,-304 110.385,-304 116.385,-304 122.385,-310 122.385,-316 122.385,-316 122.385,-328 122.385,-328 122.385,-334 116.385,-340 110.385,-340"/>
<text text-anchor="middle" x="83" y="-326.126" font-family="Verdana" font-size="9.00">CompactFlash</text>
<text text-anchor="middle" x="83" y="-313" font-family="Verdana" font-size="9.00">(via IDE)</text>
</g>
<!-- disk_images&#45;&gt;cf_ide -->
<g id="edge3" class="edge"><title>disk_images&#45;&gt;cf_ide</title>
<path fill="none" stroke="black" d="M83,-375.697C83,-367.983 83,-358.712 83,-350.112"/>
<polygon fill="black" stroke="black" points="86.5001,-350.104 83,-340.104 79.5001,-350.104 86.5001,-350.104"/>
</g>
<!-- ide_usb -->
<g id="node5" class="node"><title>ide_usb</title>
<ellipse fill="none" stroke="black" cx="222" cy="-538" rx="55.4486" ry="18"/>
<text text-anchor="middle" x="222" y="-535.563" font-family="Verdana" font-size="9.00">Physical transfer</text>
</g>
<!-- cf_ide&#45;&gt;ide_usb -->
<g id="edge4" class="edge"><title>cf_ide&#45;&gt;ide_usb</title>
<path fill="none" stroke="black" d="M105.928,-340.135C117.73,-349.756 131.75,-362.518 142,-376 174.526,-418.783 199.49,-476.85 212.349,-510.286"/>
<polygon fill="black" stroke="black" points="209.144,-511.705 215.946,-519.828 215.694,-509.236 209.144,-511.705"/>
</g>
<!-- cf_usb -->
<g id="node6" class="node"><title>cf_usb</title>
<path fill="none" stroke="black" d="M400.385,-556C400.385,-556 345.615,-556 345.615,-556 339.615,-556 333.615,-550 333.615,-544 333.615,-544 333.615,-532 333.615,-532 333.615,-526 339.615,-520 345.615,-520 345.615,-520 400.385,-520 400.385,-520 406.385,-520 412.385,-526 412.385,-532 412.385,-532 412.385,-544 412.385,-544 412.385,-550 406.385,-556 400.385,-556"/>
<text text-anchor="middle" x="373" y="-542.126" font-family="Verdana" font-size="9.00">CompactFlash</text>
<text text-anchor="middle" x="373" y="-529" font-family="Verdana" font-size="9.00">(via USB)</text>
</g>
<!-- ide_usb&#45;&gt;cf_usb -->
<g id="edge5" class="edge"><title>ide_usb&#45;&gt;cf_usb</title>
<path fill="none" stroke="black" d="M277.74,-538C293.002,-538 308.265,-538 323.527,-538"/>
<polygon fill="black" stroke="black" points="323.557,-541.5 333.557,-538 323.556,-534.5 323.557,-541.5"/>
</g>
<!-- cf_img -->
<g id="node7" class="node"><title>cf_img</title>
<path fill="none" stroke="black" d="M428.117,-484C428.117,-484 317.883,-484 317.883,-484 311.883,-484 305.883,-478 305.883,-472 305.883,-472 305.883,-460 305.883,-460 305.883,-454 311.883,-448 317.883,-448 317.883,-448 428.117,-448 428.117,-448 434.117,-448 440.117,-454 440.117,-460 440.117,-460 440.117,-472 440.117,-472 440.117,-478 434.117,-484 428.117,-484"/>
<text text-anchor="middle" x="373" y="-470.126" font-family="Verdana" font-size="9.00">Copy as ADFS Disk Image</text>
<text text-anchor="middle" x="373" y="-457" font-family="Verdana" font-size="9.00">CFBACKUP h C:\CF.DAT</text>
</g>
<!-- cf_usb&#45;&gt;cf_img -->
<g id="edge6" class="edge"><title>cf_usb&#45;&gt;cf_img</title>
<path fill="none" stroke="black" d="M373,-519.697C373,-511.983 373,-502.712 373,-494.112"/>
<polygon fill="black" stroke="black" points="376.5,-494.104 373,-484.104 369.5,-494.104 376.5,-494.104"/>
</g>
<!-- disk_images_adfs -->
<g id="node8" class="node"><title>disk_images_adfs</title>
<path fill="none" stroke="black" d="M440.271,-412C440.271,-412 305.729,-412 305.729,-412 299.729,-412 293.729,-406 293.729,-400 293.729,-400 293.729,-388 293.729,-388 293.729,-382 299.729,-376 305.729,-376 305.729,-376 440.271,-376 440.271,-376 446.271,-376 452.271,-382 452.271,-388 452.271,-388 452.271,-400 452.271,-400 452.271,-406 446.271,-412 440.271,-412"/>
<text text-anchor="middle" x="373" y="-398.126" font-family="Verdana" font-size="9.00">ADFS Disk Image</text>
<text text-anchor="middle" x="373" y="-385" font-family="Verdana" font-size="9.00">(containing Floppy Disk Image)</text>
</g>
<!-- cf_img&#45;&gt;disk_images_adfs -->
<g id="edge7" class="edge"><title>cf_img&#45;&gt;disk_images_adfs</title>
<path fill="none" stroke="black" d="M373,-447.697C373,-439.983 373,-430.712 373,-422.112"/>
<polygon fill="black" stroke="black" points="376.5,-422.104 373,-412.104 369.5,-422.104 376.5,-422.104"/>
</g>
<!-- adfs_explorer -->
<g id="node9" class="node"><title>adfs_explorer</title>
<path fill="none" stroke="black" d="M415.039,-340C415.039,-340 330.961,-340 330.961,-340 324.961,-340 318.961,-334 318.961,-328 318.961,-328 318.961,-316 318.961,-316 318.961,-310 324.961,-304 330.961,-304 330.961,-304 415.039,-304 415.039,-304 421.039,-304 427.039,-310 427.039,-316 427.039,-316 427.039,-328 427.039,-328 427.039,-334 421.039,-340 415.039,-340"/>
<text text-anchor="middle" x="373" y="-319.563" font-family="Verdana" font-size="9.00">ADFS Explorer 2.0.0</text>
</g>
<!-- disk_images_adfs&#45;&gt;adfs_explorer -->
<g id="edge8" class="edge"><title>disk_images_adfs&#45;&gt;adfs_explorer</title>
<path fill="none" stroke="black" d="M373,-375.697C373,-367.983 373,-358.712 373,-350.112"/>
<polygon fill="black" stroke="black" points="376.5,-350.104 373,-340.104 369.5,-350.104 376.5,-350.104"/>
</g>
<!-- disk_images_pc -->
<g id="node10" class="node"><title>disk_images_pc</title>
<path fill="none" stroke="black" d="M407.379,-268C407.379,-268 338.621,-268 338.621,-268 332.621,-268 326.621,-262 326.621,-256 326.621,-256 326.621,-244 326.621,-244 326.621,-238 332.621,-232 338.621,-232 338.621,-232 407.379,-232 407.379,-232 413.379,-232 419.379,-238 419.379,-244 419.379,-244 419.379,-256 419.379,-256 419.379,-262 413.379,-268 407.379,-268"/>
<text text-anchor="middle" x="373" y="-254.126" font-family="Verdana" font-size="9.00">Disk Image</text>
<text text-anchor="middle" x="373" y="-241" font-family="Verdana" font-size="9.00">(on Windows FS)</text>
</g>
<!-- adfs_explorer&#45;&gt;disk_images_pc -->
<g id="edge9" class="edge"><title>adfs_explorer&#45;&gt;disk_images_pc</title>
<path fill="none" stroke="black" d="M373,-303.697C373,-295.983 373,-286.712 373,-278.112"/>
<polygon fill="black" stroke="black" points="376.5,-278.104 373,-268.104 369.5,-278.104 376.5,-278.104"/>
</g>
<!-- disk_image_interlacer -->
<g id="node11" class="node"><title>disk_image_interlacer</title>
<path fill="none" stroke="black" d="M394.624,-196C394.624,-196 351.376,-196 351.376,-196 345.376,-196 339.376,-190 339.376,-184 339.376,-184 339.376,-172 339.376,-172 339.376,-166 345.376,-160 351.376,-160 351.376,-160 394.624,-160 394.624,-160 400.624,-160 406.624,-166 406.624,-172 406.624,-172 406.624,-184 406.624,-184 406.624,-190 400.624,-196 394.624,-196"/>
<text text-anchor="middle" x="373" y="-182.126" font-family="Verdana" font-size="9.00">Disk Image</text>
<text text-anchor="middle" x="373" y="-169" font-family="Verdana" font-size="9.00">Interlacer</text>
</g>
<!-- disk_images_pc&#45;&gt;disk_image_interlacer -->
<g id="edge10" class="edge"><title>disk_images_pc&#45;&gt;disk_image_interlacer</title>
<path fill="none" stroke="black" d="M373,-231.697C373,-223.983 373,-214.712 373,-206.112"/>
<polygon fill="black" stroke="black" points="376.5,-206.104 373,-196.104 369.5,-206.104 376.5,-206.104"/>
</g>
<!-- idisk_images_pc -->
<g id="node12" class="node"><title>idisk_images_pc</title>
<path fill="none" stroke="black" d="M419.322,-124C419.322,-124 326.678,-124 326.678,-124 320.678,-124 314.678,-118 314.678,-112 314.678,-112 314.678,-100 314.678,-100 314.678,-94 320.678,-88 326.678,-88 326.678,-88 419.322,-88 419.322,-88 425.322,-88 431.322,-94 431.322,-100 431.322,-100 431.322,-112 431.322,-112 431.322,-118 425.322,-124 419.322,-124"/>
<text text-anchor="middle" x="373" y="-110.126" font-family="Verdana" font-size="9.00">Interlaced Disk Image</text>
<text text-anchor="middle" x="373" y="-97" font-family="Verdana" font-size="9.00">(on Windows FS)</text>
</g>
<!-- disk_image_interlacer&#45;&gt;idisk_images_pc -->
<g id="edge11" class="edge"><title>disk_image_interlacer&#45;&gt;idisk_images_pc</title>
<path fill="none" stroke="black" d="M373,-159.697C373,-151.983 373,-142.712 373,-134.112"/>
<polygon fill="black" stroke="black" points="376.5,-134.104 373,-124.104 369.5,-134.104 376.5,-134.104"/>
</g>
<!-- emul -->
<g id="node13" class="node"><title>emul</title>
<path fill="none" stroke="black" d="M389.149,-52C389.149,-52 356.851,-52 356.851,-52 350.851,-52 344.851,-46 344.851,-40 344.851,-40 344.851,-28 344.851,-28 344.851,-22 350.851,-16 356.851,-16 356.851,-16 389.149,-16 389.149,-16 395.149,-16 401.149,-22 401.149,-28 401.149,-28 401.149,-40 401.149,-40 401.149,-46 395.149,-52 389.149,-52"/>
<text text-anchor="middle" x="373" y="-38.1256" font-family="Verdana" font-size="9.00">BeebEm</text>
<text text-anchor="middle" x="373" y="-25" font-family="Verdana" font-size="9.00">Emulator</text>
</g>
<!-- idisk_images_pc&#45;&gt;emul -->
<g id="edge12" class="edge"><title>idisk_images_pc&#45;&gt;emul</title>
<path fill="none" stroke="black" d="M373,-87.6966C373,-79.9827 373,-70.7125 373,-62.1124"/>
<polygon fill="black" stroke="black" points="376.5,-62.1043 373,-52.1043 369.5,-62.1044 376.5,-62.1043"/>
</g>
</g>
</svg>
