<?xml version="1.0" encoding="utf-8" standalone="no"?>
<!DOCTYPE svg PUBLIC "-//W3C//DTD SVG 1.1//EN"
  "http://www.w3.org/Graphics/SVG/1.1/DTD/svg11.dtd">
<!-- Created with matplotlib (http://matplotlib.org/) -->
<svg height="432pt" version="1.1" viewBox="0 0 864 432" width="864pt" xmlns="http://www.w3.org/2000/svg" xmlns:xlink="http://www.w3.org/1999/xlink">
 <defs>
  <style type="text/css">
*{stroke-linecap:butt;stroke-linejoin:round;}
  </style>
 </defs>
 <g id="figure_1">
  <g id="patch_1">
   <path d="
M0 432
L864 432
L864 0
L0 0
z
" style="fill:#ffffff;"/>
  </g>
  <g id="axes_1">
   <g id="patch_2">
    <path d="
M108 378
L777.6 378
L777.6 43.2
L108 43.2
z
" style="fill:#eaeaf2;"/>
   </g>
   <g id="matplotlib.axis_1">
    <g id="xtick_1">
     <g id="line2d_1">
      <path clip-path="url(#pe8a5247557)" d="
M108 378
L108 43.2" style="fill:none;stroke:#ffffff;stroke-linecap:round;"/>
     </g>
     <g id="line2d_2">
      <defs>
       <path d="
M0 0
L0 0" id="md70f53a077" style="stroke:#262626;"/>
      </defs>
      <g>
       <use style="fill:#262626;stroke:#262626;" x="108.0" xlink:href="#md70f53a077" y="378.0"/>
      </g>
     </g>
     <g id="line2d_3">
      <g>
       <use style="fill:#262626;stroke:#262626;" x="108.0" xlink:href="#md70f53a077" y="43.2"/>
      </g>
     </g>
     <g id="text_1">
      <!-- 0 -->
      <defs>
       <path d="
M4.15625 35.2969
Q4.15625 48 6.76562 55.7344
Q9.375 63.4844 14.5156 67.6719
Q19.6719 71.875 27.4844 71.875
Q33.25 71.875 37.5938 69.5469
Q41.9375 67.2344 44.7656 62.8594
Q47.6094 58.5 49.2188 52.2188
Q50.8281 45.9531 50.8281 35.2969
Q50.8281 22.7031 48.2344 14.9688
Q45.6562 7.23438 40.5 3
Q35.3594 -1.21875 27.4844 -1.21875
Q17.1406 -1.21875 11.2344 6.20312
Q4.15625 15.1406 4.15625 35.2969
M13.1875 35.2969
Q13.1875 17.6719 17.3125 11.8281
Q21.4375 6 27.4844 6
Q33.5469 6 37.6719 11.8594
Q41.7969 17.7188 41.7969 35.2969
Q41.7969 52.9844 37.6719 58.7812
Q33.5469 64.5938 27.3906 64.5938
Q21.3438 64.5938 17.7188 59.4688
Q13.1875 52.9375 13.1875 35.2969" id="ArialMT-30"/>
      </defs>
      <g style="fill:#262626;" transform="translate(105.66640625 392.1578125)scale(0.1 -0.1)">
       <use xlink:href="#ArialMT-30"/>
      </g>
     </g>
    </g>
    <g id="xtick_2">
     <g id="line2d_4">
      <path clip-path="url(#pe8a5247557)" d="
M219.6 378
L219.6 43.2" style="fill:none;stroke:#ffffff;stroke-linecap:round;"/>
     </g>
     <g id="line2d_5">
      <g>
       <use style="fill:#262626;stroke:#262626;" x="219.6" xlink:href="#md70f53a077" y="378.0"/>
      </g>
     </g>
     <g id="line2d_6">
      <g>
       <use style="fill:#262626;stroke:#262626;" x="219.6" xlink:href="#md70f53a077" y="43.2"/>
      </g>
     </g>
     <g id="text_2">
      <!-- 5 -->
      <defs>
       <path d="
M4.15625 18.75
L13.375 19.5312
Q14.4062 12.7969 18.1406 9.39062
Q21.875 6 27.1562 6
Q33.5 6 37.8906 10.7812
Q42.2812 15.5781 42.2812 23.4844
Q42.2812 31 38.0625 35.3438
Q33.8438 39.7031 27 39.7031
Q22.75 39.7031 19.3281 37.7656
Q15.9219 35.8438 13.9688 32.7656
L5.71875 33.8438
L12.6406 70.6094
L48.25 70.6094
L48.25 62.2031
L19.6719 62.2031
L15.8281 42.9688
Q22.2656 47.4688 29.3438 47.4688
Q38.7188 47.4688 45.1562 40.9688
Q51.6094 34.4688 51.6094 24.2656
Q51.6094 14.5469 45.9531 7.46875
Q39.0625 -1.21875 27.1562 -1.21875
Q17.3906 -1.21875 11.2031 4.25
Q5.03125 9.71875 4.15625 18.75" id="ArialMT-35"/>
      </defs>
      <g style="fill:#262626;" transform="translate(217.22734375 392.1578125)scale(0.1 -0.1)">
       <use xlink:href="#ArialMT-35"/>
      </g>
     </g>
    </g>
    <g id="xtick_3">
     <g id="line2d_7">
      <path clip-path="url(#pe8a5247557)" d="
M331.2 378
L331.2 43.2" style="fill:none;stroke:#ffffff;stroke-linecap:round;"/>
     </g>
     <g id="line2d_8">
      <g>
       <use style="fill:#262626;stroke:#262626;" x="331.2" xlink:href="#md70f53a077" y="378.0"/>
      </g>
     </g>
     <g id="line2d_9">
      <g>
       <use style="fill:#262626;stroke:#262626;" x="331.2" xlink:href="#md70f53a077" y="43.2"/>
      </g>
     </g>
     <g id="text_3">
      <!-- 10 -->
      <defs>
       <path d="
M37.25 0
L28.4688 0
L28.4688 56
Q25.2969 52.9844 20.1406 49.9531
Q14.9844 46.9219 10.8906 45.4062
L10.8906 53.9062
Q18.2656 57.375 23.7812 62.2969
Q29.2969 67.2344 31.5938 71.875
L37.25 71.875
z
" id="ArialMT-31"/>
      </defs>
      <g style="fill:#262626;" transform="translate(326.42265625 392.1578125)scale(0.1 -0.1)">
       <use xlink:href="#ArialMT-31"/>
       <use x="55.615234375" xlink:href="#ArialMT-30"/>
      </g>
     </g>
    </g>
    <g id="xtick_4">
     <g id="line2d_10">
      <path clip-path="url(#pe8a5247557)" d="
M442.8 378
L442.8 43.2" style="fill:none;stroke:#ffffff;stroke-linecap:round;"/>
     </g>
     <g id="line2d_11">
      <g>
       <use style="fill:#262626;stroke:#262626;" x="442.8" xlink:href="#md70f53a077" y="378.0"/>
      </g>
     </g>
     <g id="line2d_12">
      <g>
       <use style="fill:#262626;stroke:#262626;" x="442.8" xlink:href="#md70f53a077" y="43.2"/>
      </g>
     </g>
     <g id="text_4">
      <!-- 15 -->
      <g style="fill:#262626;" transform="translate(437.98359375 392.1578125)scale(0.1 -0.1)">
       <use xlink:href="#ArialMT-31"/>
       <use x="55.615234375" xlink:href="#ArialMT-35"/>
      </g>
     </g>
    </g>
    <g id="xtick_5">
     <g id="line2d_13">
      <path clip-path="url(#pe8a5247557)" d="
M554.4 378
L554.4 43.2" style="fill:none;stroke:#ffffff;stroke-linecap:round;"/>
     </g>
     <g id="line2d_14">
      <g>
       <use style="fill:#262626;stroke:#262626;" x="554.4" xlink:href="#md70f53a077" y="378.0"/>
      </g>
     </g>
     <g id="line2d_15">
      <g>
       <use style="fill:#262626;stroke:#262626;" x="554.4" xlink:href="#md70f53a077" y="43.2"/>
      </g>
     </g>
     <g id="text_5">
      <!-- 20 -->
      <defs>
       <path d="
M50.3438 8.45312
L50.3438 0
L3.03125 0
Q2.9375 3.17188 4.04688 6.10938
Q5.85938 10.9375 9.82812 15.625
Q13.8125 20.3125 21.3438 26.4688
Q33.0156 36.0312 37.1094 41.625
Q41.2188 47.2188 41.2188 52.2031
Q41.2188 57.4219 37.4688 61
Q33.7344 64.5938 27.7344 64.5938
Q21.3906 64.5938 17.5781 60.7812
Q13.7656 56.9844 13.7188 50.25
L4.6875 51.1719
Q5.60938 61.2812 11.6562 66.5781
Q17.7188 71.875 27.9375 71.875
Q38.2344 71.875 44.2344 66.1562
Q50.25 60.4531 50.25 52
Q50.25 47.7031 48.4844 43.5469
Q46.7344 39.4062 42.6562 34.8125
Q38.5781 30.2188 29.1094 22.2188
Q21.1875 15.5781 18.9375 13.2031
Q16.7031 10.8438 15.2344 8.45312
z
" id="ArialMT-32"/>
      </defs>
      <g style="fill:#262626;" transform="translate(549.225 392.1578125)scale(0.1 -0.1)">
       <use xlink:href="#ArialMT-32"/>
       <use x="55.615234375" xlink:href="#ArialMT-30"/>
      </g>
     </g>
    </g>
    <g id="xtick_6">
     <g id="line2d_16">
      <path clip-path="url(#pe8a5247557)" d="
M666 378
L666 43.2" style="fill:none;stroke:#ffffff;stroke-linecap:round;"/>
     </g>
     <g id="line2d_17">
      <g>
       <use style="fill:#262626;stroke:#262626;" x="666.0" xlink:href="#md70f53a077" y="378.0"/>
      </g>
     </g>
     <g id="line2d_18">
      <g>
       <use style="fill:#262626;stroke:#262626;" x="666.0" xlink:href="#md70f53a077" y="43.2"/>
      </g>
     </g>
     <g id="text_6">
      <!-- 25 -->
      <g style="fill:#262626;" transform="translate(660.7859375 392.1578125)scale(0.1 -0.1)">
       <use xlink:href="#ArialMT-32"/>
       <use x="55.615234375" xlink:href="#ArialMT-35"/>
      </g>
     </g>
    </g>
    <g id="xtick_7">
     <g id="line2d_19">
      <path clip-path="url(#pe8a5247557)" d="
M777.6 378
L777.6 43.2" style="fill:none;stroke:#ffffff;stroke-linecap:round;"/>
     </g>
     <g id="line2d_20">
      <g>
       <use style="fill:#262626;stroke:#262626;" x="777.6" xlink:href="#md70f53a077" y="378.0"/>
      </g>
     </g>
     <g id="line2d_21">
      <g>
       <use style="fill:#262626;stroke:#262626;" x="777.6" xlink:href="#md70f53a077" y="43.2"/>
      </g>
     </g>
     <g id="text_7">
      <!-- 30 -->
      <defs>
       <path d="
M4.20312 18.8906
L12.9844 20.0625
Q14.5 12.5938 18.1406 9.29688
Q21.7812 6 27 6
Q33.2031 6 37.4688 10.2969
Q41.75 14.5938 41.75 20.9531
Q41.75 27 37.7969 30.9219
Q33.8438 34.8594 27.7344 34.8594
Q25.25 34.8594 21.5312 33.8906
L22.5156 41.6094
Q23.3906 41.5 23.9219 41.5
Q29.5469 41.5 34.0312 44.4219
Q38.5312 47.3594 38.5312 53.4688
Q38.5312 58.2969 35.25 61.4688
Q31.9844 64.6562 26.8125 64.6562
Q21.6875 64.6562 18.2656 61.4219
Q14.8438 58.2031 13.875 51.7656
L5.07812 53.3281
Q6.6875 62.1562 12.3906 67.0156
Q18.1094 71.875 26.6094 71.875
Q32.4688 71.875 37.3906 69.3594
Q42.3281 66.8438 44.9375 62.5
Q47.5625 58.1562 47.5625 53.2656
Q47.5625 48.6406 45.0625 44.8281
Q42.5781 41.0156 37.7031 38.7656
Q44.0469 37.3125 47.5625 32.6875
Q51.0781 28.0781 51.0781 21.1406
Q51.0781 11.7656 44.2344 5.25
Q37.4062 -1.26562 26.9531 -1.26562
Q17.5312 -1.26562 11.2969 4.34375
Q5.07812 9.96875 4.20312 18.8906" id="ArialMT-33"/>
      </defs>
      <g style="fill:#262626;" transform="translate(772.48828125 392.1578125)scale(0.1 -0.1)">
       <use xlink:href="#ArialMT-33"/>
       <use x="55.615234375" xlink:href="#ArialMT-30"/>
      </g>
     </g>
    </g>
    <g id="text_8">
     <!-- Query Time [s] -->
     <defs>
      <path d="
M6.59375 0
L6.59375 51.8594
L14.4531 51.8594
L14.4531 44.5781
Q16.8906 48.3906 20.9375 50.7031
Q25 53.0312 30.1719 53.0312
Q35.9375 53.0312 39.625 50.6406
Q43.3125 48.25 44.8281 43.9531
Q50.9844 53.0312 60.8438 53.0312
Q68.5625 53.0312 72.7031 48.75
Q76.8594 44.4844 76.8594 35.5938
L76.8594 0
L68.1094 0
L68.1094 32.6719
Q68.1094 37.9375 67.25 40.25
Q66.4062 42.5781 64.1562 43.9844
Q61.9219 45.4062 58.8906 45.4062
Q53.4219 45.4062 49.7969 41.7656
Q46.1875 38.1406 46.1875 30.125
L46.1875 0
L37.4062 0
L37.4062 33.6875
Q37.4062 39.5469 35.25 42.4688
Q33.1094 45.4062 28.2188 45.4062
Q24.5156 45.4062 21.3594 43.4531
Q18.2188 41.5 16.7969 37.7344
Q15.375 33.9844 15.375 26.9062
L15.375 0
z
" id="ArialMT-6d"/>
      <path d="
M42.0938 16.7031
L51.1719 15.5781
Q49.0312 7.625 43.2188 3.21875
Q37.4062 -1.17188 28.375 -1.17188
Q17 -1.17188 10.3281 5.82812
Q3.65625 12.8438 3.65625 25.4844
Q3.65625 38.5781 10.3906 45.7969
Q17.1406 53.0312 27.875 53.0312
Q38.2812 53.0312 44.875 45.9531
Q51.4688 38.875 51.4688 26.0312
Q51.4688 25.25 51.4219 23.6875
L12.75 23.6875
Q13.2344 15.1406 17.5781 10.5938
Q21.9219 6.0625 28.4219 6.0625
Q33.25 6.0625 36.6719 8.59375
Q40.0938 11.1406 42.0938 16.7031
M13.2344 30.9062
L42.1875 30.9062
Q41.6094 37.4531 38.875 40.7188
Q34.6719 45.7969 27.9844 45.7969
Q21.9219 45.7969 17.7969 41.75
Q13.6719 37.7031 13.2344 30.9062" id="ArialMT-65"/>
      <path d="
M6.20312 -19.9688
L5.21875 -11.7188
Q8.10938 -12.5 10.25 -12.5
Q13.1875 -12.5 14.9375 -11.5156
Q16.7031 -10.5469 17.8281 -8.79688
Q18.6562 -7.46875 20.5156 -2.25
Q20.75 -1.51562 21.2969 -0.09375
L1.60938 51.8594
L11.0781 51.8594
L21.875 21.8281
Q23.9688 16.1094 25.6406 9.8125
Q27.1562 15.875 29.25 21.625
L40.3281 51.8594
L49.125 51.8594
L29.3906 -0.875
Q26.2188 -9.42188 24.4688 -12.6406
Q22.125 -17 19.0938 -19.0156
Q16.0625 -21.0469 11.8594 -21.0469
Q9.32812 -21.0469 6.20312 -19.9688" id="ArialMT-79"/>
      <path d="
M21.2969 -19.875
L1.90625 -19.875
L1.90625 -12.5938
L12.5 -12.5938
L12.5 64.3125
L1.90625 64.3125
L1.90625 71.5781
L21.2969 71.5781
z
" id="ArialMT-5d"/>
      <path id="ArialMT-20"/>
      <path d="
M3.07812 15.4844
L11.7656 16.8438
Q12.5 11.625 15.8438 8.84375
Q19.1875 6.0625 25.2031 6.0625
Q31.25 6.0625 34.1719 8.51562
Q37.1094 10.9844 37.1094 14.3125
Q37.1094 17.2812 34.5156 19
Q32.7188 20.1719 25.5312 21.9688
Q15.875 24.4219 12.1406 26.2031
Q8.40625 27.9844 6.46875 31.125
Q4.54688 34.2812 4.54688 38.0938
Q4.54688 41.5469 6.125 44.5
Q7.71875 47.4688 10.4531 49.4219
Q12.5 50.9219 16.0312 51.9688
Q19.5781 53.0312 23.6406 53.0312
Q29.7344 53.0312 34.3438 51.2656
Q38.9688 49.5156 41.1562 46.5
Q43.3594 43.5 44.1875 38.4844
L35.5938 37.3125
Q35.0156 41.3125 32.2031 43.5469
Q29.3906 45.7969 24.2656 45.7969
Q18.2188 45.7969 15.625 43.7969
Q13.0312 41.7969 13.0312 39.1094
Q13.0312 37.4062 14.1094 36.0312
Q15.1875 34.625 17.4844 33.6875
Q18.7969 33.2031 25.25 31.4531
Q34.5781 28.9531 38.25 27.3594
Q41.9375 25.7812 44.0312 22.75
Q46.1406 19.7344 46.1406 15.2344
Q46.1406 10.8438 43.5781 6.95312
Q41.0156 3.07812 36.1719 0.953125
Q31.3438 -1.17188 25.25 -1.17188
Q15.1406 -1.17188 9.84375 3.03125
Q4.54688 7.23438 3.07812 15.4844" id="ArialMT-73"/>
      <path d="
M40.5781 0
L40.5781 7.625
Q34.5156 -1.17188 24.125 -1.17188
Q19.5312 -1.17188 15.5469 0.578125
Q11.5781 2.34375 9.64062 5
Q7.71875 7.67188 6.9375 11.5312
Q6.39062 14.1094 6.39062 19.7344
L6.39062 51.8594
L15.1875 51.8594
L15.1875 23.0938
Q15.1875 16.2188 15.7188 13.8125
Q16.5469 10.3594 19.2344 8.375
Q21.9219 6.39062 25.875 6.39062
Q29.8281 6.39062 33.2969 8.42188
Q36.7656 10.4531 38.2031 13.9375
Q39.6562 17.4375 39.6562 24.0781
L39.6562 51.8594
L48.4375 51.8594
L48.4375 0
z
" id="ArialMT-75"/>
      <path d="
M61.9688 7.67188
Q68.5625 3.125 74.125 1.03125
L71.3438 -5.5625
Q63.625 -2.78125 55.9531 3.21875
Q48 -1.21875 38.375 -1.21875
Q28.6562 -1.21875 20.75 3.46875
Q12.8438 8.15625 8.5625 16.6406
Q4.29688 25.1406 4.29688 35.7969
Q4.29688 46.3906 8.59375 55.0781
Q12.8906 63.7656 20.8281 68.3125
Q28.7656 72.8594 38.5781 72.8594
Q48.4844 72.8594 56.4375 68.1406
Q64.4062 63.4219 68.5781 54.9531
Q72.75 46.4844 72.75 35.8438
Q72.75 27 70.0625 19.9375
Q67.3906 12.8906 61.9688 7.67188
M41.1094 19.7812
Q49.3125 17.4844 54.6406 12.9375
Q62.9844 20.5625 62.9844 35.8438
Q62.9844 44.5312 60.0312 51.0156
Q57.0781 57.5156 51.3906 61.1094
Q45.7031 64.7031 38.625 64.7031
Q28.0312 64.7031 21.0469 57.4531
Q14.0625 50.2031 14.0625 35.7969
Q14.0625 21.8281 20.9688 14.3594
Q27.875 6.89062 38.625 6.89062
Q43.7031 6.89062 48.1875 8.79688
Q43.75 11.6719 38.8125 12.8906
z
" id="ArialMT-51"/>
      <path d="
M25.9219 0
L25.9219 63.1406
L2.34375 63.1406
L2.34375 71.5781
L59.0781 71.5781
L59.0781 63.1406
L35.4062 63.1406
L35.4062 0
z
" id="ArialMT-54"/>
      <path d="
M6.78125 -19.875
L6.78125 71.5781
L26.1719 71.5781
L26.1719 64.3125
L15.5781 64.3125
L15.5781 -12.5938
L26.1719 -12.5938
L26.1719 -19.875
z
" id="ArialMT-5b"/>
      <path d="
M6.5 0
L6.5 51.8594
L14.4062 51.8594
L14.4062 44
Q17.4375 49.5156 20 51.2656
Q22.5625 53.0312 25.6406 53.0312
Q30.0781 53.0312 34.6719 50.2031
L31.6406 42.0469
Q28.4219 43.9531 25.2031 43.9531
Q22.3125 43.9531 20.0156 42.2188
Q17.7188 40.4844 16.75 37.4062
Q15.2812 32.7188 15.2812 27.1562
L15.2812 0
z
" id="ArialMT-72"/>
      <path d="
M6.64062 61.4688
L6.64062 71.5781
L15.4375 71.5781
L15.4375 61.4688
z

M6.64062 0
L6.64062 51.8594
L15.4375 51.8594
L15.4375 0
z
" id="ArialMT-69"/>
     </defs>
     <g style="fill:#262626;" transform="translate(407.399765625 407.15984375)scale(0.11 -0.11)">
      <use xlink:href="#ArialMT-51"/>
      <use x="77.783203125" xlink:href="#ArialMT-75"/>
      <use x="133.3984375" xlink:href="#ArialMT-65"/>
      <use x="189.013671875" xlink:href="#ArialMT-72"/>
      <use x="222.314453125" xlink:href="#ArialMT-79"/>
      <use x="272.314453125" xlink:href="#ArialMT-20"/>
      <use x="298.34765625" xlink:href="#ArialMT-54"/>
      <use x="355.681640625" xlink:href="#ArialMT-69"/>
      <use x="377.8984375" xlink:href="#ArialMT-6d"/>
      <use x="461.19921875" xlink:href="#ArialMT-65"/>
      <use x="516.814453125" xlink:href="#ArialMT-20"/>
      <use x="544.59765625" xlink:href="#ArialMT-5b"/>
      <use x="572.380859375" xlink:href="#ArialMT-73"/>
      <use x="622.380859375" xlink:href="#ArialMT-5d"/>
     </g>
    </g>
   </g>
   <g id="matplotlib.axis_2">
    <g id="ytick_1">
     <g id="line2d_22">
      <path clip-path="url(#pe8a5247557)" d="
M108 378
L777.6 378" style="fill:none;stroke:#ffffff;stroke-linecap:round;"/>
     </g>
     <g id="line2d_23">
      <g>
       <use style="fill:#262626;stroke:#262626;" x="108.0" xlink:href="#md70f53a077" y="378.0"/>
      </g>
     </g>
     <g id="line2d_24">
      <g>
       <use style="fill:#262626;stroke:#262626;" x="777.6" xlink:href="#md70f53a077" y="378.0"/>
      </g>
     </g>
     <g id="text_9">
      <!-- 0.0 -->
      <defs>
       <path d="
M9.07812 0
L9.07812 10.0156
L19.0938 10.0156
L19.0938 0
z
" id="ArialMT-2e"/>
      </defs>
      <g style="fill:#262626;" transform="translate(87.99375 380.58515625)scale(0.1 -0.1)">
       <use xlink:href="#ArialMT-30"/>
       <use x="55.615234375" xlink:href="#ArialMT-2e"/>
       <use x="83.3984375" xlink:href="#ArialMT-30"/>
      </g>
     </g>
    </g>
    <g id="ytick_2">
     <g id="line2d_25">
      <path clip-path="url(#pe8a5247557)" d="
M108 330.171
L777.6 330.171" style="fill:none;stroke:#ffffff;stroke-linecap:round;"/>
     </g>
     <g id="line2d_26">
      <g>
       <use style="fill:#262626;stroke:#262626;" x="108.0" xlink:href="#md70f53a077" y="330.171428571"/>
      </g>
     </g>
     <g id="line2d_27">
      <g>
       <use style="fill:#262626;stroke:#262626;" x="777.6" xlink:href="#md70f53a077" y="330.171428571"/>
      </g>
     </g>
     <g id="text_10">
      <!-- 0.1 -->
      <g style="fill:#262626;" transform="translate(89.3515625 332.756584821)scale(0.1 -0.1)">
       <use xlink:href="#ArialMT-30"/>
       <use x="55.615234375" xlink:href="#ArialMT-2e"/>
       <use x="83.3984375" xlink:href="#ArialMT-31"/>
      </g>
     </g>
    </g>
    <g id="ytick_3">
     <g id="line2d_28">
      <path clip-path="url(#pe8a5247557)" d="
M108 282.343
L777.6 282.343" style="fill:none;stroke:#ffffff;stroke-linecap:round;"/>
     </g>
     <g id="line2d_29">
      <g>
       <use style="fill:#262626;stroke:#262626;" x="108.0" xlink:href="#md70f53a077" y="282.342857143"/>
      </g>
     </g>
     <g id="line2d_30">
      <g>
       <use style="fill:#262626;stroke:#262626;" x="777.6" xlink:href="#md70f53a077" y="282.342857143"/>
      </g>
     </g>
     <g id="text_11">
      <!-- 0.2 -->
      <g style="fill:#262626;" transform="translate(88.0421875 284.928013393)scale(0.1 -0.1)">
       <use xlink:href="#ArialMT-30"/>
       <use x="55.615234375" xlink:href="#ArialMT-2e"/>
       <use x="83.3984375" xlink:href="#ArialMT-32"/>
      </g>
     </g>
    </g>
    <g id="ytick_4">
     <g id="line2d_31">
      <path clip-path="url(#pe8a5247557)" d="
M108 234.514
L777.6 234.514" style="fill:none;stroke:#ffffff;stroke-linecap:round;"/>
     </g>
     <g id="line2d_32">
      <g>
       <use style="fill:#262626;stroke:#262626;" x="108.0" xlink:href="#md70f53a077" y="234.514285714"/>
      </g>
     </g>
     <g id="line2d_33">
      <g>
       <use style="fill:#262626;stroke:#262626;" x="777.6" xlink:href="#md70f53a077" y="234.514285714"/>
      </g>
     </g>
     <g id="text_12">
      <!-- 0.3 -->
      <g style="fill:#262626;" transform="translate(87.96875 237.099441964)scale(0.1 -0.1)">
       <use xlink:href="#ArialMT-30"/>
       <use x="55.615234375" xlink:href="#ArialMT-2e"/>
       <use x="83.3984375" xlink:href="#ArialMT-33"/>
      </g>
     </g>
    </g>
    <g id="ytick_5">
     <g id="line2d_34">
      <path clip-path="url(#pe8a5247557)" d="
M108 186.686
L777.6 186.686" style="fill:none;stroke:#ffffff;stroke-linecap:round;"/>
     </g>
     <g id="line2d_35">
      <g>
       <use style="fill:#262626;stroke:#262626;" x="108.0" xlink:href="#md70f53a077" y="186.685714286"/>
      </g>
     </g>
     <g id="line2d_36">
      <g>
       <use style="fill:#262626;stroke:#262626;" x="777.6" xlink:href="#md70f53a077" y="186.685714286"/>
      </g>
     </g>
     <g id="text_13">
      <!-- 0.4 -->
      <defs>
       <path d="
M32.3281 0
L32.3281 17.1406
L1.26562 17.1406
L1.26562 25.2031
L33.9375 71.5781
L41.1094 71.5781
L41.1094 25.2031
L50.7812 25.2031
L50.7812 17.1406
L41.1094 17.1406
L41.1094 0
z

M32.3281 25.2031
L32.3281 57.4688
L9.90625 25.2031
z
" id="ArialMT-34"/>
      </defs>
      <g style="fill:#262626;" transform="translate(87.9984375 189.270870536)scale(0.1 -0.1)">
       <use xlink:href="#ArialMT-30"/>
       <use x="55.615234375" xlink:href="#ArialMT-2e"/>
       <use x="83.3984375" xlink:href="#ArialMT-34"/>
      </g>
     </g>
    </g>
    <g id="ytick_6">
     <g id="line2d_37">
      <path clip-path="url(#pe8a5247557)" d="
M108 138.857
L777.6 138.857" style="fill:none;stroke:#ffffff;stroke-linecap:round;"/>
     </g>
     <g id="line2d_38">
      <g>
       <use style="fill:#262626;stroke:#262626;" x="108.0" xlink:href="#md70f53a077" y="138.857142857"/>
      </g>
     </g>
     <g id="line2d_39">
      <g>
       <use style="fill:#262626;stroke:#262626;" x="777.6" xlink:href="#md70f53a077" y="138.857142857"/>
      </g>
     </g>
     <g id="text_14">
      <!-- 0.5 -->
      <g style="fill:#262626;" transform="translate(87.915625 141.442299107)scale(0.1 -0.1)">
       <use xlink:href="#ArialMT-30"/>
       <use x="55.615234375" xlink:href="#ArialMT-2e"/>
       <use x="83.3984375" xlink:href="#ArialMT-35"/>
      </g>
     </g>
    </g>
    <g id="ytick_7">
     <g id="line2d_40">
      <path clip-path="url(#pe8a5247557)" d="
M108 91.0286
L777.6 91.0286" style="fill:none;stroke:#ffffff;stroke-linecap:round;"/>
     </g>
     <g id="line2d_41">
      <g>
       <use style="fill:#262626;stroke:#262626;" x="108.0" xlink:href="#md70f53a077" y="91.0285714286"/>
      </g>
     </g>
     <g id="line2d_42">
      <g>
       <use style="fill:#262626;stroke:#262626;" x="777.6" xlink:href="#md70f53a077" y="91.0285714286"/>
      </g>
     </g>
     <g id="text_15">
      <!-- 0.6 -->
      <defs>
       <path d="
M49.75 54.0469
L41.0156 53.375
Q39.8438 58.5469 37.7031 60.8906
Q34.125 64.6562 28.9062 64.6562
Q24.7031 64.6562 21.5312 62.3125
Q17.3906 59.2812 14.9844 53.4688
Q12.5938 47.6562 12.5 36.9219
Q15.6719 41.75 20.2656 44.0938
Q24.8594 46.4375 29.8906 46.4375
Q38.6719 46.4375 44.8438 39.9688
Q51.0312 33.5 51.0312 23.25
Q51.0312 16.5 48.125 10.7188
Q45.2188 4.9375 40.1406 1.85938
Q35.0625 -1.21875 28.6094 -1.21875
Q17.625 -1.21875 10.6875 6.85938
Q3.76562 14.9375 3.76562 33.5
Q3.76562 54.25 11.4219 63.6719
Q18.1094 71.875 29.4375 71.875
Q37.8906 71.875 43.2812 67.1406
Q48.6875 62.4062 49.75 54.0469
M13.875 23.1875
Q13.875 18.6562 15.7969 14.5
Q17.7188 10.3594 21.1875 8.17188
Q24.6562 6 28.4688 6
Q34.0312 6 38.0312 10.4844
Q42.0469 14.9844 42.0469 22.7031
Q42.0469 30.125 38.0781 34.3906
Q34.125 38.6719 28.125 38.6719
Q22.1719 38.6719 18.0156 34.3906
Q13.875 30.125 13.875 23.1875" id="ArialMT-36"/>
      </defs>
      <g style="fill:#262626;" transform="translate(87.9734375 93.6137276786)scale(0.1 -0.1)">
       <use xlink:href="#ArialMT-30"/>
       <use x="55.615234375" xlink:href="#ArialMT-2e"/>
       <use x="83.3984375" xlink:href="#ArialMT-36"/>
      </g>
     </g>
    </g>
    <g id="ytick_8">
     <g id="line2d_43">
      <path clip-path="url(#pe8a5247557)" d="
M108 43.2
L777.6 43.2" style="fill:none;stroke:#ffffff;stroke-linecap:round;"/>
     </g>
     <g id="line2d_44">
      <g>
       <use style="fill:#262626;stroke:#262626;" x="108.0" xlink:href="#md70f53a077" y="43.2"/>
      </g>
     </g>
     <g id="line2d_45">
      <g>
       <use style="fill:#262626;stroke:#262626;" x="777.6" xlink:href="#md70f53a077" y="43.2"/>
      </g>
     </g>
     <g id="text_16">
      <!-- 0.7 -->
      <defs>
       <path d="
M4.73438 62.2031
L4.73438 70.6562
L51.0781 70.6562
L51.0781 63.8125
Q44.2344 56.5469 37.5156 44.4844
Q30.8125 32.4219 27.1562 19.6719
Q24.5156 10.6875 23.7812 0
L14.75 0
Q14.8906 8.45312 18.0625 20.4062
Q21.2344 32.375 27.1719 43.4844
Q33.1094 54.5938 39.7969 62.2031
z
" id="ArialMT-37"/>
      </defs>
      <g style="fill:#262626;" transform="translate(87.96875 45.78515625)scale(0.1 -0.1)">
       <use xlink:href="#ArialMT-30"/>
       <use x="55.615234375" xlink:href="#ArialMT-2e"/>
       <use x="83.3984375" xlink:href="#ArialMT-37"/>
      </g>
     </g>
    </g>
   </g>
   <g id="patch_3">
    <path clip-path="url(#pe8a5247557)" d="
M108 378
L121.665 378
L121.665 102.054
L108 102.054
z
" style="fill:#60779c;opacity:0.5;stroke:#eeeeee;stroke-linejoin:miter;stroke-width:0.3;"/>
   </g>
   <g id="patch_4">
    <path clip-path="url(#pe8a5247557)" d="
M121.665 378
L135.331 378
L135.331 354.681
L121.665 354.681
z
" style="fill:#60779c;opacity:0.5;stroke:#eeeeee;stroke-linejoin:miter;stroke-width:0.3;"/>
   </g>
   <g id="patch_5">
    <path clip-path="url(#pe8a5247557)" d="
M135.331 378
L148.996 378
L148.996 366.34
L135.331 366.34
z
" style="fill:#60779c;opacity:0.5;stroke:#eeeeee;stroke-linejoin:miter;stroke-width:0.3;"/>
   </g>
   <g id="patch_6">
    <path clip-path="url(#pe8a5247557)" d="
M148.996 378
L162.661 378
L162.661 321.645
L148.996 321.645
z
" style="fill:#60779c;opacity:0.5;stroke:#eeeeee;stroke-linejoin:miter;stroke-width:0.3;"/>
   </g>
   <g id="patch_7">
    <path clip-path="url(#pe8a5247557)" d="
M162.661 378
L176.327 378
L176.327 364.397
L162.661 364.397
z
" style="fill:#60779c;opacity:0.5;stroke:#eeeeee;stroke-linejoin:miter;stroke-width:0.3;"/>
   </g>
   <g id="patch_8">
    <path clip-path="url(#pe8a5247557)" d="
M176.327 378
L189.992 378
L189.992 360.51
L176.327 360.51
z
" style="fill:#60779c;opacity:0.5;stroke:#eeeeee;stroke-linejoin:miter;stroke-width:0.3;"/>
   </g>
   <g id="patch_9">
    <path clip-path="url(#pe8a5247557)" d="
M189.992 378
L203.657 378
L203.657 360.51
L189.992 360.51
z
" style="fill:#60779c;opacity:0.5;stroke:#eeeeee;stroke-linejoin:miter;stroke-width:0.3;"/>
   </g>
   <g id="patch_10">
    <path clip-path="url(#pe8a5247557)" d="
M203.657 378
L217.322 378
L217.322 360.51
L203.657 360.51
z
" style="fill:#60779c;opacity:0.5;stroke:#eeeeee;stroke-linejoin:miter;stroke-width:0.3;"/>
   </g>
   <g id="patch_11">
    <path clip-path="url(#pe8a5247557)" d="
M217.322 378
L230.988 378
L230.988 344.964
L217.322 344.964
z
" style="fill:#60779c;opacity:0.5;stroke:#eeeeee;stroke-linejoin:miter;stroke-width:0.3;"/>
   </g>
   <g id="patch_12">
    <path clip-path="url(#pe8a5247557)" d="
M230.988 378
L244.653 378
L244.653 346.907
L230.988 346.907
z
" style="fill:#60779c;opacity:0.5;stroke:#eeeeee;stroke-linejoin:miter;stroke-width:0.3;"/>
   </g>
   <g id="patch_13">
    <path clip-path="url(#pe8a5247557)" d="
M244.653 378
L258.318 378
L258.318 356.624
L244.653 356.624
z
" style="fill:#60779c;opacity:0.5;stroke:#eeeeee;stroke-linejoin:miter;stroke-width:0.3;"/>
   </g>
   <g id="patch_14">
    <path clip-path="url(#pe8a5247557)" d="
M258.318 378
L271.984 378
L271.984 360.51
L258.318 360.51
z
" style="fill:#60779c;opacity:0.5;stroke:#eeeeee;stroke-linejoin:miter;stroke-width:0.3;"/>
   </g>
   <g id="patch_15">
    <path clip-path="url(#pe8a5247557)" d="
M271.984 378
L285.649 378
L285.649 354.681
L271.984 354.681
z
" style="fill:#60779c;opacity:0.5;stroke:#eeeeee;stroke-linejoin:miter;stroke-width:0.3;"/>
   </g>
   <g id="patch_16">
    <path clip-path="url(#pe8a5247557)" d="
M285.649 378
L299.314 378
L299.314 366.34
L285.649 366.34
z
" style="fill:#60779c;opacity:0.5;stroke:#eeeeee;stroke-linejoin:miter;stroke-width:0.3;"/>
   </g>
   <g id="patch_17">
    <path clip-path="url(#pe8a5247557)" d="
M299.314 378
L312.98 378
L312.98 358.567
L299.314 358.567
z
" style="fill:#60779c;opacity:0.5;stroke:#eeeeee;stroke-linejoin:miter;stroke-width:0.3;"/>
   </g>
   <g id="patch_18">
    <path clip-path="url(#pe8a5247557)" d="
M312.98 378
L326.645 378
L326.645 352.737
L312.98 352.737
z
" style="fill:#60779c;opacity:0.5;stroke:#eeeeee;stroke-linejoin:miter;stroke-width:0.3;"/>
   </g>
   <g id="patch_19">
    <path clip-path="url(#pe8a5247557)" d="
M326.645 378
L340.31 378
L340.31 358.567
L326.645 358.567
z
" style="fill:#60779c;opacity:0.5;stroke:#eeeeee;stroke-linejoin:miter;stroke-width:0.3;"/>
   </g>
   <g id="patch_20">
    <path clip-path="url(#pe8a5247557)" d="
M340.31 378
L353.976 378
L353.976 362.454
L340.31 362.454
z
" style="fill:#60779c;opacity:0.5;stroke:#eeeeee;stroke-linejoin:miter;stroke-width:0.3;"/>
   </g>
   <g id="patch_21">
    <path clip-path="url(#pe8a5247557)" d="
M353.976 378
L367.641 378
L367.641 366.34
L353.976 366.34
z
" style="fill:#60779c;opacity:0.5;stroke:#eeeeee;stroke-linejoin:miter;stroke-width:0.3;"/>
   </g>
   <g id="patch_22">
    <path clip-path="url(#pe8a5247557)" d="
M367.641 378
L381.306 378
L381.306 370.227
L367.641 370.227
z
" style="fill:#60779c;opacity:0.5;stroke:#eeeeee;stroke-linejoin:miter;stroke-width:0.3;"/>
   </g>
   <g id="patch_23">
    <path clip-path="url(#pe8a5247557)" d="
M381.306 378
L394.971 378
L394.971 370.227
L381.306 370.227
z
" style="fill:#60779c;opacity:0.5;stroke:#eeeeee;stroke-linejoin:miter;stroke-width:0.3;"/>
   </g>
   <g id="patch_24">
    <path clip-path="url(#pe8a5247557)" d="
M394.971 378
L408.637 378
L408.637 366.34
L394.971 366.34
z
" style="fill:#60779c;opacity:0.5;stroke:#eeeeee;stroke-linejoin:miter;stroke-width:0.3;"/>
   </g>
   <g id="patch_25">
    <path clip-path="url(#pe8a5247557)" d="
M408.637 378
L422.302 378
L422.302 372.17
L408.637 372.17
z
" style="fill:#60779c;opacity:0.5;stroke:#eeeeee;stroke-linejoin:miter;stroke-width:0.3;"/>
   </g>
   <g id="patch_26">
    <path clip-path="url(#pe8a5247557)" d="
M422.302 378
L435.967 378
L435.967 364.397
L422.302 364.397
z
" style="fill:#60779c;opacity:0.5;stroke:#eeeeee;stroke-linejoin:miter;stroke-width:0.3;"/>
   </g>
   <g id="patch_27">
    <path clip-path="url(#pe8a5247557)" d="
M435.967 378
L449.633 378
L449.633 378
L435.967 378
z
" style="fill:#60779c;opacity:0.5;stroke:#eeeeee;stroke-linejoin:miter;stroke-width:0.3;"/>
   </g>
   <g id="patch_28">
    <path clip-path="url(#pe8a5247557)" d="
M449.633 378
L463.298 378
L463.298 372.17
L449.633 372.17
z
" style="fill:#60779c;opacity:0.5;stroke:#eeeeee;stroke-linejoin:miter;stroke-width:0.3;"/>
   </g>
   <g id="patch_29">
    <path clip-path="url(#pe8a5247557)" d="
M463.298 378
L476.963 378
L476.963 370.227
L463.298 370.227
z
" style="fill:#60779c;opacity:0.5;stroke:#eeeeee;stroke-linejoin:miter;stroke-width:0.3;"/>
   </g>
   <g id="patch_30">
    <path clip-path="url(#pe8a5247557)" d="
M476.963 378
L490.629 378
L490.629 370.227
L476.963 370.227
z
" style="fill:#60779c;opacity:0.5;stroke:#eeeeee;stroke-linejoin:miter;stroke-width:0.3;"/>
   </g>
   <g id="patch_31">
    <path clip-path="url(#pe8a5247557)" d="
M490.629 378
L504.294 378
L504.294 370.227
L490.629 370.227
z
" style="fill:#60779c;opacity:0.5;stroke:#eeeeee;stroke-linejoin:miter;stroke-width:0.3;"/>
   </g>
   <g id="patch_32">
    <path clip-path="url(#pe8a5247557)" d="
M504.294 378
L517.959 378
L517.959 370.227
L504.294 370.227
z
" style="fill:#60779c;opacity:0.5;stroke:#eeeeee;stroke-linejoin:miter;stroke-width:0.3;"/>
   </g>
   <g id="patch_33">
    <path clip-path="url(#pe8a5247557)" d="
M517.959 378
L531.624 378
L531.624 376.057
L517.959 376.057
z
" style="fill:#60779c;opacity:0.5;stroke:#eeeeee;stroke-linejoin:miter;stroke-width:0.3;"/>
   </g>
   <g id="patch_34">
    <path clip-path="url(#pe8a5247557)" d="
M531.624 378
L545.29 378
L545.29 374.113
L531.624 374.113
z
" style="fill:#60779c;opacity:0.5;stroke:#eeeeee;stroke-linejoin:miter;stroke-width:0.3;"/>
   </g>
   <g id="patch_35">
    <path clip-path="url(#pe8a5247557)" d="
M545.29 378
L558.955 378
L558.955 372.17
L545.29 372.17
z
" style="fill:#60779c;opacity:0.5;stroke:#eeeeee;stroke-linejoin:miter;stroke-width:0.3;"/>
   </g>
   <g id="patch_36">
    <path clip-path="url(#pe8a5247557)" d="
M558.955 378
L572.62 378
L572.62 372.17
L558.955 372.17
z
" style="fill:#60779c;opacity:0.5;stroke:#eeeeee;stroke-linejoin:miter;stroke-width:0.3;"/>
   </g>
   <g id="patch_37">
    <path clip-path="url(#pe8a5247557)" d="
M572.62 378
L586.286 378
L586.286 378
L572.62 378
z
" style="fill:#60779c;opacity:0.5;stroke:#eeeeee;stroke-linejoin:miter;stroke-width:0.3;"/>
   </g>
   <g id="patch_38">
    <path clip-path="url(#pe8a5247557)" d="
M586.286 378
L599.951 378
L599.951 374.113
L586.286 374.113
z
" style="fill:#60779c;opacity:0.5;stroke:#eeeeee;stroke-linejoin:miter;stroke-width:0.3;"/>
   </g>
   <g id="patch_39">
    <path clip-path="url(#pe8a5247557)" d="
M599.951 378
L613.616 378
L613.616 376.057
L599.951 376.057
z
" style="fill:#60779c;opacity:0.5;stroke:#eeeeee;stroke-linejoin:miter;stroke-width:0.3;"/>
   </g>
   <g id="patch_40">
    <path clip-path="url(#pe8a5247557)" d="
M613.616 378
L627.282 378
L627.282 378
L613.616 378
z
" style="fill:#60779c;opacity:0.5;stroke:#eeeeee;stroke-linejoin:miter;stroke-width:0.3;"/>
   </g>
   <g id="patch_41">
    <path clip-path="url(#pe8a5247557)" d="
M627.282 378
L640.947 378
L640.947 374.113
L627.282 374.113
z
" style="fill:#60779c;opacity:0.5;stroke:#eeeeee;stroke-linejoin:miter;stroke-width:0.3;"/>
   </g>
   <g id="patch_42">
    <path clip-path="url(#pe8a5247557)" d="
M640.947 378
L654.612 378
L654.612 376.057
L640.947 376.057
z
" style="fill:#60779c;opacity:0.5;stroke:#eeeeee;stroke-linejoin:miter;stroke-width:0.3;"/>
   </g>
   <g id="patch_43">
    <path clip-path="url(#pe8a5247557)" d="
M654.612 378
L668.278 378
L668.278 376.057
L654.612 376.057
z
" style="fill:#60779c;opacity:0.5;stroke:#eeeeee;stroke-linejoin:miter;stroke-width:0.3;"/>
   </g>
   <g id="patch_44">
    <path clip-path="url(#pe8a5247557)" d="
M668.278 378
L681.943 378
L681.943 378
L668.278 378
z
" style="fill:#60779c;opacity:0.5;stroke:#eeeeee;stroke-linejoin:miter;stroke-width:0.3;"/>
   </g>
   <g id="patch_45">
    <path clip-path="url(#pe8a5247557)" d="
M681.943 378
L695.608 378
L695.608 378
L681.943 378
z
" style="fill:#60779c;opacity:0.5;stroke:#eeeeee;stroke-linejoin:miter;stroke-width:0.3;"/>
   </g>
   <g id="patch_46">
    <path clip-path="url(#pe8a5247557)" d="
M695.608 378
L709.273 378
L709.273 378
L695.608 378
z
" style="fill:#60779c;opacity:0.5;stroke:#eeeeee;stroke-linejoin:miter;stroke-width:0.3;"/>
   </g>
   <g id="patch_47">
    <path clip-path="url(#pe8a5247557)" d="
M709.273 378
L722.939 378
L722.939 376.057
L709.273 376.057
z
" style="fill:#60779c;opacity:0.5;stroke:#eeeeee;stroke-linejoin:miter;stroke-width:0.3;"/>
   </g>
   <g id="patch_48">
    <path clip-path="url(#pe8a5247557)" d="
M722.939 378
L736.604 378
L736.604 378
L722.939 378
z
" style="fill:#60779c;opacity:0.5;stroke:#eeeeee;stroke-linejoin:miter;stroke-width:0.3;"/>
   </g>
   <g id="patch_49">
    <path clip-path="url(#pe8a5247557)" d="
M736.604 378
L750.269 378
L750.269 376.057
L736.604 376.057
z
" style="fill:#60779c;opacity:0.5;stroke:#eeeeee;stroke-linejoin:miter;stroke-width:0.3;"/>
   </g>
   <g id="patch_50">
    <path clip-path="url(#pe8a5247557)" d="
M750.269 378
L763.935 378
L763.935 378
L750.269 378
z
" style="fill:#60779c;opacity:0.5;stroke:#eeeeee;stroke-linejoin:miter;stroke-width:0.3;"/>
   </g>
   <g id="patch_51">
    <path clip-path="url(#pe8a5247557)" d="
M763.935 378
L777.6 378
L777.6 378
L763.935 378
z
" style="fill:#60779c;opacity:0.5;stroke:#eeeeee;stroke-linejoin:miter;stroke-width:0.3;"/>
   </g>
   <g id="patch_52">
    <path clip-path="url(#pe8a5247557)" d="
M108 378
L121.665 378
L121.665 90
L108 90
z
" style="fill:#669771;opacity:0.5;stroke:#eeeeee;stroke-linejoin:miter;stroke-width:0.3;"/>
   </g>
   <g id="patch_53">
    <path clip-path="url(#pe8a5247557)" d="
M121.665 378
L135.331 378
L135.331 354.6
L121.665 354.6
z
" style="fill:#669771;opacity:0.5;stroke:#eeeeee;stroke-linejoin:miter;stroke-width:0.3;"/>
   </g>
   <g id="patch_54">
    <path clip-path="url(#pe8a5247557)" d="
M135.331 378
L148.996 378
L148.996 295.2
L135.331 295.2
z
" style="fill:#669771;opacity:0.5;stroke:#eeeeee;stroke-linejoin:miter;stroke-width:0.3;"/>
   </g>
   <g id="patch_55">
    <path clip-path="url(#pe8a5247557)" d="
M148.996 378
L162.661 378
L162.661 320.4
L148.996 320.4
z
" style="fill:#669771;opacity:0.5;stroke:#eeeeee;stroke-linejoin:miter;stroke-width:0.3;"/>
   </g>
   <g id="patch_56">
    <path clip-path="url(#pe8a5247557)" d="
M162.661 378
L176.327 378
L176.327 352.8
L162.661 352.8
z
" style="fill:#669771;opacity:0.5;stroke:#eeeeee;stroke-linejoin:miter;stroke-width:0.3;"/>
   </g>
   <g id="patch_57">
    <path clip-path="url(#pe8a5247557)" d="
M176.327 378
L189.992 378
L189.992 333
L176.327 333
z
" style="fill:#669771;opacity:0.5;stroke:#eeeeee;stroke-linejoin:miter;stroke-width:0.3;"/>
   </g>
   <g id="patch_58">
    <path clip-path="url(#pe8a5247557)" d="
M189.992 378
L203.657 378
L203.657 352.8
L189.992 352.8
z
" style="fill:#669771;opacity:0.5;stroke:#eeeeee;stroke-linejoin:miter;stroke-width:0.3;"/>
   </g>
   <g id="patch_59">
    <path clip-path="url(#pe8a5247557)" d="
M203.657 378
L217.322 378
L217.322 356.4
L203.657 356.4
z
" style="fill:#669771;opacity:0.5;stroke:#eeeeee;stroke-linejoin:miter;stroke-width:0.3;"/>
   </g>
   <g id="patch_60">
    <path clip-path="url(#pe8a5247557)" d="
M217.322 378
L230.988 378
L230.988 347.4
L217.322 347.4
z
" style="fill:#669771;opacity:0.5;stroke:#eeeeee;stroke-linejoin:miter;stroke-width:0.3;"/>
   </g>
   <g id="patch_61">
    <path clip-path="url(#pe8a5247557)" d="
M230.988 378
L244.653 378
L244.653 345.6
L230.988 345.6
z
" style="fill:#669771;opacity:0.5;stroke:#eeeeee;stroke-linejoin:miter;stroke-width:0.3;"/>
   </g>
   <g id="patch_62">
    <path clip-path="url(#pe8a5247557)" d="
M244.653 378
L258.318 378
L258.318 349.2
L244.653 349.2
z
" style="fill:#669771;opacity:0.5;stroke:#eeeeee;stroke-linejoin:miter;stroke-width:0.3;"/>
   </g>
   <g id="patch_63">
    <path clip-path="url(#pe8a5247557)" d="
M258.318 378
L271.984 378
L271.984 360
L258.318 360
z
" style="fill:#669771;opacity:0.5;stroke:#eeeeee;stroke-linejoin:miter;stroke-width:0.3;"/>
   </g>
   <g id="patch_64">
    <path clip-path="url(#pe8a5247557)" d="
M271.984 378
L285.649 378
L285.649 361.8
L271.984 361.8
z
" style="fill:#669771;opacity:0.5;stroke:#eeeeee;stroke-linejoin:miter;stroke-width:0.3;"/>
   </g>
   <g id="patch_65">
    <path clip-path="url(#pe8a5247557)" d="
M285.649 378
L299.314 378
L299.314 369
L285.649 369
z
" style="fill:#669771;opacity:0.5;stroke:#eeeeee;stroke-linejoin:miter;stroke-width:0.3;"/>
   </g>
   <g id="patch_66">
    <path clip-path="url(#pe8a5247557)" d="
M299.314 378
L312.98 378
L312.98 361.8
L299.314 361.8
z
" style="fill:#669771;opacity:0.5;stroke:#eeeeee;stroke-linejoin:miter;stroke-width:0.3;"/>
   </g>
   <g id="patch_67">
    <path clip-path="url(#pe8a5247557)" d="
M312.98 378
L326.645 378
L326.645 365.4
L312.98 365.4
z
" style="fill:#669771;opacity:0.5;stroke:#eeeeee;stroke-linejoin:miter;stroke-width:0.3;"/>
   </g>
   <g id="patch_68">
    <path clip-path="url(#pe8a5247557)" d="
M326.645 378
L340.31 378
L340.31 367.2
L326.645 367.2
z
" style="fill:#669771;opacity:0.5;stroke:#eeeeee;stroke-linejoin:miter;stroke-width:0.3;"/>
   </g>
   <g id="patch_69">
    <path clip-path="url(#pe8a5247557)" d="
M340.31 378
L353.976 378
L353.976 374.4
L340.31 374.4
z
" style="fill:#669771;opacity:0.5;stroke:#eeeeee;stroke-linejoin:miter;stroke-width:0.3;"/>
   </g>
   <g id="patch_70">
    <path clip-path="url(#pe8a5247557)" d="
M353.976 378
L367.641 378
L367.641 372.6
L353.976 372.6
z
" style="fill:#669771;opacity:0.5;stroke:#eeeeee;stroke-linejoin:miter;stroke-width:0.3;"/>
   </g>
   <g id="patch_71">
    <path clip-path="url(#pe8a5247557)" d="
M367.641 378
L381.306 378
L381.306 376.2
L367.641 376.2
z
" style="fill:#669771;opacity:0.5;stroke:#eeeeee;stroke-linejoin:miter;stroke-width:0.3;"/>
   </g>
   <g id="patch_72">
    <path clip-path="url(#pe8a5247557)" d="
M381.306 378
L394.971 378
L394.971 376.2
L381.306 376.2
z
" style="fill:#669771;opacity:0.5;stroke:#eeeeee;stroke-linejoin:miter;stroke-width:0.3;"/>
   </g>
   <g id="patch_73">
    <path clip-path="url(#pe8a5247557)" d="
M394.971 378
L408.637 378
L408.637 372.6
L394.971 372.6
z
" style="fill:#669771;opacity:0.5;stroke:#eeeeee;stroke-linejoin:miter;stroke-width:0.3;"/>
   </g>
   <g id="patch_74">
    <path clip-path="url(#pe8a5247557)" d="
M408.637 378
L422.302 378
L422.302 376.2
L408.637 376.2
z
" style="fill:#669771;opacity:0.5;stroke:#eeeeee;stroke-linejoin:miter;stroke-width:0.3;"/>
   </g>
   <g id="patch_75">
    <path clip-path="url(#pe8a5247557)" d="
M422.302 378
L435.967 378
L435.967 372.6
L422.302 372.6
z
" style="fill:#669771;opacity:0.5;stroke:#eeeeee;stroke-linejoin:miter;stroke-width:0.3;"/>
   </g>
   <g id="patch_76">
    <path clip-path="url(#pe8a5247557)" d="
M435.967 378
L449.633 378
L449.633 378
L435.967 378
z
" style="fill:#669771;opacity:0.5;stroke:#eeeeee;stroke-linejoin:miter;stroke-width:0.3;"/>
   </g>
   <g id="patch_77">
    <path clip-path="url(#pe8a5247557)" d="
M449.633 378
L463.298 378
L463.298 378
L449.633 378
z
" style="fill:#669771;opacity:0.5;stroke:#eeeeee;stroke-linejoin:miter;stroke-width:0.3;"/>
   </g>
   <g id="patch_78">
    <path clip-path="url(#pe8a5247557)" d="
M463.298 378
L476.963 378
L476.963 376.2
L463.298 376.2
z
" style="fill:#669771;opacity:0.5;stroke:#eeeeee;stroke-linejoin:miter;stroke-width:0.3;"/>
   </g>
   <g id="patch_79">
    <path clip-path="url(#pe8a5247557)" d="
M476.963 378
L490.629 378
L490.629 378
L476.963 378
z
" style="fill:#669771;opacity:0.5;stroke:#eeeeee;stroke-linejoin:miter;stroke-width:0.3;"/>
   </g>
   <g id="patch_80">
    <path clip-path="url(#pe8a5247557)" d="
M490.629 378
L504.294 378
L504.294 378
L490.629 378
z
" style="fill:#669771;opacity:0.5;stroke:#eeeeee;stroke-linejoin:miter;stroke-width:0.3;"/>
   </g>
   <g id="patch_81">
    <path clip-path="url(#pe8a5247557)" d="
M504.294 378
L517.959 378
L517.959 376.2
L504.294 376.2
z
" style="fill:#669771;opacity:0.5;stroke:#eeeeee;stroke-linejoin:miter;stroke-width:0.3;"/>
   </g>
   <g id="patch_82">
    <path clip-path="url(#pe8a5247557)" d="
M517.959 378
L531.624 378
L531.624 378
L517.959 378
z
" style="fill:#669771;opacity:0.5;stroke:#eeeeee;stroke-linejoin:miter;stroke-width:0.3;"/>
   </g>
   <g id="patch_83">
    <path clip-path="url(#pe8a5247557)" d="
M531.624 378
L545.29 378
L545.29 378
L531.624 378
z
" style="fill:#669771;opacity:0.5;stroke:#eeeeee;stroke-linejoin:miter;stroke-width:0.3;"/>
   </g>
   <g id="patch_84">
    <path clip-path="url(#pe8a5247557)" d="
M545.29 378
L558.955 378
L558.955 378
L545.29 378
z
" style="fill:#669771;opacity:0.5;stroke:#eeeeee;stroke-linejoin:miter;stroke-width:0.3;"/>
   </g>
   <g id="patch_85">
    <path clip-path="url(#pe8a5247557)" d="
M558.955 378
L572.62 378
L572.62 378
L558.955 378
z
" style="fill:#669771;opacity:0.5;stroke:#eeeeee;stroke-linejoin:miter;stroke-width:0.3;"/>
   </g>
   <g id="patch_86">
    <path clip-path="url(#pe8a5247557)" d="
M572.62 378
L586.286 378
L586.286 378
L572.62 378
z
" style="fill:#669771;opacity:0.5;stroke:#eeeeee;stroke-linejoin:miter;stroke-width:0.3;"/>
   </g>
   <g id="patch_87">
    <path clip-path="url(#pe8a5247557)" d="
M586.286 378
L599.951 378
L599.951 378
L586.286 378
z
" style="fill:#669771;opacity:0.5;stroke:#eeeeee;stroke-linejoin:miter;stroke-width:0.3;"/>
   </g>
   <g id="patch_88">
    <path clip-path="url(#pe8a5247557)" d="
M599.951 378
L613.616 378
L613.616 378
L599.951 378
z
" style="fill:#669771;opacity:0.5;stroke:#eeeeee;stroke-linejoin:miter;stroke-width:0.3;"/>
   </g>
   <g id="patch_89">
    <path clip-path="url(#pe8a5247557)" d="
M613.616 378
L627.282 378
L627.282 378
L613.616 378
z
" style="fill:#669771;opacity:0.5;stroke:#eeeeee;stroke-linejoin:miter;stroke-width:0.3;"/>
   </g>
   <g id="patch_90">
    <path clip-path="url(#pe8a5247557)" d="
M627.282 378
L640.947 378
L640.947 378
L627.282 378
z
" style="fill:#669771;opacity:0.5;stroke:#eeeeee;stroke-linejoin:miter;stroke-width:0.3;"/>
   </g>
   <g id="patch_91">
    <path clip-path="url(#pe8a5247557)" d="
M640.947 378
L654.612 378
L654.612 376.2
L640.947 376.2
z
" style="fill:#669771;opacity:0.5;stroke:#eeeeee;stroke-linejoin:miter;stroke-width:0.3;"/>
   </g>
   <g id="patch_92">
    <path clip-path="url(#pe8a5247557)" d="
M654.612 378
L668.278 378
L668.278 376.2
L654.612 376.2
z
" style="fill:#669771;opacity:0.5;stroke:#eeeeee;stroke-linejoin:miter;stroke-width:0.3;"/>
   </g>
   <g id="patch_93">
    <path clip-path="url(#pe8a5247557)" d="
M668.278 378
L681.943 378
L681.943 376.2
L668.278 376.2
z
" style="fill:#669771;opacity:0.5;stroke:#eeeeee;stroke-linejoin:miter;stroke-width:0.3;"/>
   </g>
   <g id="patch_94">
    <path clip-path="url(#pe8a5247557)" d="
M681.943 378
L695.608 378
L695.608 376.2
L681.943 376.2
z
" style="fill:#669771;opacity:0.5;stroke:#eeeeee;stroke-linejoin:miter;stroke-width:0.3;"/>
   </g>
   <g id="patch_95">
    <path clip-path="url(#pe8a5247557)" d="
M695.608 378
L709.273 378
L709.273 378
L695.608 378
z
" style="fill:#669771;opacity:0.5;stroke:#eeeeee;stroke-linejoin:miter;stroke-width:0.3;"/>
   </g>
   <g id="patch_96">
    <path clip-path="url(#pe8a5247557)" d="
M709.273 378
L722.939 378
L722.939 376.2
L709.273 376.2
z
" style="fill:#669771;opacity:0.5;stroke:#eeeeee;stroke-linejoin:miter;stroke-width:0.3;"/>
   </g>
   <g id="patch_97">
    <path clip-path="url(#pe8a5247557)" d="
M722.939 378
L736.604 378
L736.604 378
L722.939 378
z
" style="fill:#669771;opacity:0.5;stroke:#eeeeee;stroke-linejoin:miter;stroke-width:0.3;"/>
   </g>
   <g id="patch_98">
    <path clip-path="url(#pe8a5247557)" d="
M736.604 378
L750.269 378
L750.269 378
L736.604 378
z
" style="fill:#669771;opacity:0.5;stroke:#eeeeee;stroke-linejoin:miter;stroke-width:0.3;"/>
   </g>
   <g id="patch_99">
    <path clip-path="url(#pe8a5247557)" d="
M750.269 378
L763.935 378
L763.935 378
L750.269 378
z
" style="fill:#669771;opacity:0.5;stroke:#eeeeee;stroke-linejoin:miter;stroke-width:0.3;"/>
   </g>
   <g id="patch_100">
    <path clip-path="url(#pe8a5247557)" d="
M763.935 378
L777.6 378
L777.6 378
L763.935 378
z
" style="fill:#669771;opacity:0.5;stroke:#eeeeee;stroke-linejoin:miter;stroke-width:0.3;"/>
   </g>
   <g id="patch_101">
    <path d="
M108 378
L108 43.2" style="fill:none;"/>
   </g>
   <g id="patch_102">
    <path d="
M108 378
L777.6 378" style="fill:none;"/>
   </g>
   <g id="patch_103">
    <path d="
M777.6 378
L777.6 43.2" style="fill:none;"/>
   </g>
   <g id="patch_104">
    <path d="
M108 43.2
L777.6 43.2" style="fill:none;"/>
   </g>
   <g id="legend_1">
    <g id="patch_105">
     <path d="
M683.197 59.3578
L703.197 59.3578
L703.197 52.3578
L683.197 52.3578
z
" style="fill:#60779c;opacity:0.5;stroke:#eeeeee;stroke-linejoin:miter;stroke-width:0.3;"/>
    </g>
    <g id="text_17">
     <!-- Two Servers -->
     <defs>
      <path d="
M3.32812 25.9219
Q3.32812 40.3281 11.3281 47.2656
Q18.0156 53.0312 27.6406 53.0312
Q38.3281 53.0312 45.1094 46.0156
Q51.9062 39.0156 51.9062 26.6562
Q51.9062 16.6562 48.9062 10.9062
Q45.9062 5.17188 40.1562 2
Q34.4219 -1.17188 27.6406 -1.17188
Q16.75 -1.17188 10.0312 5.8125
Q3.32812 12.7969 3.32812 25.9219
M12.3594 25.9219
Q12.3594 15.9688 16.7031 11.0156
Q21.0469 6.0625 27.6406 6.0625
Q34.1875 6.0625 38.5312 11.0312
Q42.875 16.0156 42.875 26.2188
Q42.875 35.8438 38.5 40.7969
Q34.125 45.75 27.6406 45.75
Q21.0469 45.75 16.7031 40.8125
Q12.3594 35.8906 12.3594 25.9219" id="ArialMT-6f"/>
      <path d="
M4.5 23
L13.4219 23.7812
Q14.0625 18.4062 16.375 14.9688
Q18.7031 11.5312 23.5781 9.40625
Q28.4688 7.28125 34.5781 7.28125
Q39.9844 7.28125 44.1406 8.89062
Q48.2969 10.5 50.3125 13.2969
Q52.3438 16.1094 52.3438 19.4375
Q52.3438 22.7969 50.3906 25.3125
Q48.4375 27.8281 43.9531 29.5469
Q41.0625 30.6719 31.2031 33.0312
Q21.3438 35.4062 17.3906 37.5
Q12.25 40.1875 9.73438 44.1562
Q7.23438 48.1406 7.23438 53.0781
Q7.23438 58.5 10.2969 63.2031
Q13.375 67.9219 19.2812 70.3594
Q25.2031 72.7969 32.4219 72.7969
Q40.375 72.7969 46.4531 70.2344
Q52.5469 67.6719 55.8125 62.6875
Q59.0781 57.7188 59.3281 51.4219
L50.25 50.7344
Q49.5156 57.5156 45.2812 60.9844
Q41.0625 64.4531 32.8125 64.4531
Q24.2188 64.4531 20.2812 61.2969
Q16.3594 58.1562 16.3594 53.7188
Q16.3594 49.8594 19.1406 47.3594
Q21.875 44.875 33.4219 42.2656
Q44.9688 39.6562 49.2656 37.7031
Q55.5156 34.8125 58.4844 30.3906
Q61.4688 25.9844 61.4688 20.2188
Q61.4688 14.5 58.2031 9.4375
Q54.9375 4.39062 48.7969 1.57812
Q42.6719 -1.21875 35.0156 -1.21875
Q25.2969 -1.21875 18.7188 1.60938
Q12.1562 4.4375 8.42188 10.125
Q4.6875 15.8281 4.5 23" id="ArialMT-53"/>
      <path d="
M21 0
L1.26562 51.8594
L10.5469 51.8594
L21.6875 20.7969
Q23.4844 15.7656 25 10.3594
Q26.1719 14.4531 28.2656 20.2188
L39.7969 51.8594
L48.8281 51.8594
L29.2031 0
z
" id="ArialMT-76"/>
      <path d="
M16.1562 0
L0.296875 51.8594
L9.375 51.8594
L17.625 21.9219
L20.7031 10.7969
Q20.9062 11.625 23.3906 21.4844
L31.6406 51.8594
L40.6719 51.8594
L48.4375 21.7812
L51.0312 11.8594
L54 21.875
L62.8906 51.8594
L71.4375 51.8594
L55.2188 0
L46.0938 0
L37.8438 31.0625
L35.8438 39.8906
L25.3438 0
z
" id="ArialMT-77"/>
     </defs>
     <g style="fill:#262626;" transform="translate(711.196875 59.3578125)scale(0.1 -0.1)">
      <use xlink:href="#ArialMT-54"/>
      <use x="55.583984375" xlink:href="#ArialMT-77"/>
      <use x="127.80078125" xlink:href="#ArialMT-6f"/>
      <use x="183.416015625" xlink:href="#ArialMT-20"/>
      <use x="211.19921875" xlink:href="#ArialMT-53"/>
      <use x="277.8984375" xlink:href="#ArialMT-65"/>
      <use x="333.513671875" xlink:href="#ArialMT-72"/>
      <use x="366.814453125" xlink:href="#ArialMT-76"/>
      <use x="416.814453125" xlink:href="#ArialMT-65"/>
      <use x="472.4296875" xlink:href="#ArialMT-72"/>
      <use x="505.73046875" xlink:href="#ArialMT-73"/>
     </g>
    </g>
    <g id="patch_106">
     <path d="
M683.197 73.5031
L703.197 73.5031
L703.197 66.5031
L683.197 66.5031
z
" style="fill:#669771;opacity:0.5;stroke:#eeeeee;stroke-linejoin:miter;stroke-width:0.3;"/>
    </g>
    <g id="text_18">
     <!-- Four Servers -->
     <defs>
      <path d="
M8.20312 0
L8.20312 71.5781
L56.5 71.5781
L56.5 63.1406
L17.6719 63.1406
L17.6719 40.9688
L51.2656 40.9688
L51.2656 32.5156
L17.6719 32.5156
L17.6719 0
z
" id="ArialMT-46"/>
     </defs>
     <g style="fill:#262626;" transform="translate(711.196875 73.503125)scale(0.1 -0.1)">
      <use xlink:href="#ArialMT-46"/>
      <use x="61.083984375" xlink:href="#ArialMT-6f"/>
      <use x="116.69921875" xlink:href="#ArialMT-75"/>
      <use x="172.314453125" xlink:href="#ArialMT-72"/>
      <use x="205.615234375" xlink:href="#ArialMT-20"/>
      <use x="233.3984375" xlink:href="#ArialMT-53"/>
      <use x="300.09765625" xlink:href="#ArialMT-65"/>
      <use x="355.712890625" xlink:href="#ArialMT-72"/>
      <use x="389.013671875" xlink:href="#ArialMT-76"/>
      <use x="439.013671875" xlink:href="#ArialMT-65"/>
      <use x="494.62890625" xlink:href="#ArialMT-72"/>
      <use x="527.9296875" xlink:href="#ArialMT-73"/>
     </g>
    </g>
   </g>
  </g>
 </g>
 <defs>
  <clipPath id="pe8a5247557">
   <rect height="334.8" width="669.6" x="108.0" y="43.2"/>
  </clipPath>
 </defs>
</svg>
