<?xml version="1.0" encoding="UTF-8" standalone="no"?>
<!DOCTYPE svg PUBLIC "-//W3C//DTD SVG 1.1//EN"
 "http://www.w3.org/Graphics/SVG/1.1/DTD/svg11.dtd">
<!-- Generated by graphviz version 2.32.0 (20130808.2104)
 -->
<!-- Title: bbc_l1 Pages: 1 -->
<svg width="458pt" height="109pt"
 viewBox="0.00 0.00 458.00 109.00" xmlns="http://www.w3.org/2000/svg" xmlns:xlink="http://www.w3.org/1999/xlink">
<g id="graph0" class="graph" transform="scale(1 1) rotate(0) translate(4 105)">
<title>bbc_l1</title>
<polygon fill="white" stroke="white" points="-4,5 -4,-105 455,-105 455,5 -4,5"/>
<g id="clust1" class="cluster"><title>cluster_pc</title>
<polygon fill="none" stroke="black" points="8,-8 8,-93 442,-93 442,-8 8,-8"/>
<text text-anchor="middle" x="225" y="-80" font-family="Verdana" font-size="9.00">Modern PC</text>
</g>
<!-- fd -->
<g id="node1" class="node"><title>fd</title>
<path fill="none" stroke="black" d="M72.2073,-58C72.2073,-58 27.7927,-58 27.7927,-58 21.7927,-58 15.7927,-52 15.7927,-46 15.7927,-46 15.7927,-34 15.7927,-34 15.7927,-28 21.7927,-22 27.7927,-22 27.7927,-22 72.2073,-22 72.2073,-22 78.2073,-22 84.2073,-28 84.2073,-34 84.2073,-34 84.2073,-46 84.2073,-46 84.2073,-52 78.2073,-58 72.2073,-58"/>
<text text-anchor="middle" x="50" y="-44.1256" font-family="Verdana" font-size="9.00">Floppy Disk</text>
<text text-anchor="middle" x="50" y="-31" font-family="Verdana" font-size="9.00">(USB)</text>
</g>
<!-- kryo -->
<g id="node2" class="node"><title>kryo</title>
<path fill="none" stroke="black" d="M175.24,-58C175.24,-58 132.76,-58 132.76,-58 126.76,-58 120.76,-52 120.76,-46 120.76,-46 120.76,-34 120.76,-34 120.76,-28 126.76,-22 132.76,-22 132.76,-22 175.24,-22 175.24,-22 181.24,-22 187.24,-28 187.24,-34 187.24,-34 187.24,-46 187.24,-46 187.24,-52 181.24,-58 175.24,-58"/>
<text text-anchor="middle" x="154" y="-44.1256" font-family="Verdana" font-size="9.00">Kryoflux</text>
<text text-anchor="middle" x="154" y="-31" font-family="Verdana" font-size="9.00">(or similar)</text>
</g>
<!-- fd&#45;&gt;kryo -->
<g id="edge1" class="edge"><title>fd&#45;&gt;kryo</title>
<path fill="none" stroke="black" d="M84.1165,-40C92.5621,-40 101.757,-40 110.597,-40"/>
<polygon fill="black" stroke="black" points="110.745,-43.5001 120.745,-40 110.745,-36.5001 110.745,-43.5001"/>
</g>
<!-- fdi -->
<g id="node3" class="node"><title>fdi</title>
<path fill="none" stroke="black" d="M305.673,-63.8783C305.673,-63.8783 236.327,-63.8783 236.327,-63.8783 230.327,-63.8783 224.327,-57.8783 224.327,-51.8783 224.327,-51.8783 224.327,-28.1217 224.327,-28.1217 224.327,-22.1217 230.327,-16.1217 236.327,-16.1217 236.327,-16.1217 305.673,-16.1217 305.673,-16.1217 311.673,-16.1217 317.673,-22.1217 317.673,-28.1217 317.673,-28.1217 317.673,-51.8783 317.673,-51.8783 317.673,-57.8783 311.673,-63.8783 305.673,-63.8783"/>
<text text-anchor="middle" x="271" y="-50.6884" font-family="Verdana" font-size="9.00">Floppy</text>
<text text-anchor="middle" x="271" y="-37.5628" font-family="Verdana" font-size="9.00">Disk Image</text>
<text text-anchor="middle" x="271" y="-24.4372" font-family="Verdana" font-size="9.00">(on Windows FS)</text>
</g>
<!-- kryo&#45;&gt;fdi -->
<g id="edge2" class="edge"><title>kryo&#45;&gt;fdi</title>
<path fill="none" stroke="black" d="M187.34,-40C195.642,-40 204.816,-40 213.941,-40"/>
<polygon fill="black" stroke="black" points="214.175,-43.5001 224.175,-40 214.175,-36.5001 214.175,-43.5001"/>
</g>
<!-- emul -->
<g id="node4" class="node"><title>emul</title>
<path fill="none" stroke="black" d="M421.154,-58C421.154,-58 366.846,-58 366.846,-58 360.846,-58 354.846,-52 354.846,-46 354.846,-46 354.846,-34 354.846,-34 354.846,-28 360.846,-22 366.846,-22 366.846,-22 421.154,-22 421.154,-22 427.154,-22 433.154,-28 433.154,-34 433.154,-34 433.154,-46 433.154,-46 433.154,-52 427.154,-58 421.154,-58"/>
<text text-anchor="middle" x="394" y="-37.5628" font-family="Verdana" font-size="9.00">BBC Emulator</text>
</g>
<!-- fdi&#45;&gt;emul -->
<g id="edge3" class="edge"><title>fdi&#45;&gt;emul</title>
<path fill="none" stroke="black" d="M317.745,-40C326.499,-40 335.693,-40 344.53,-40"/>
<polygon fill="black" stroke="black" points="344.692,-43.5001 354.691,-40 344.691,-36.5001 344.692,-43.5001"/>
</g>
</g>
</svg>
